<svg width="9866" height="933" viewBox="0 0 9866 933" fill="none" xmlns="http://www.w3.org/2000/svg">
<g filter="url(#filter0_d_102_6)">
<path d="M2726.11 201.138C2726.11 183.866 2734.75 172.602 2752.02 167.345C2756.53 166.594 2762.16 165.843 2768.92 165.092C2775.68 164.341 2783.19 166.969 2791.45 172.977C2799.71 178.985 2803.84 188.372 2803.84 201.138V741.828C2803.84 753.092 2800.46 761.728 2793.7 767.736C2784.69 775.245 2774.93 779 2764.41 779C2754.65 779 2745.64 775.996 2737.38 769.989C2729.87 763.981 2726.11 754.594 2726.11 741.828V491.759H2402.83V741.828C2402.83 753.092 2399.82 761.728 2393.82 767.736C2384.8 775.245 2375.04 779 2364.53 779C2354.02 779 2345 775.996 2337.49 769.989C2329.98 763.981 2326.23 754.594 2326.23 741.828V201.138C2326.23 183.866 2334.49 172.602 2351.01 167.345C2355.52 166.594 2361.15 165.843 2367.91 165.092C2374.67 164.341 2382.18 166.969 2390.44 172.977C2398.7 178.985 2402.83 188.372 2402.83 201.138V427.552H2726.11V201.138ZM3156.51 518.793C3172.28 518.793 3188.05 519.169 3203.82 519.92V483.874C3203.82 425.299 3171.16 396.012 3105.82 396.012C3076.54 396.012 3055.13 398.64 3041.62 403.897C3017.59 412.908 3000.31 420.793 2989.8 427.552C2979.29 433.559 2971.03 436.563 2965.02 436.563C2959.01 436.563 2953.38 434.31 2948.12 429.805C2942.87 425.299 2940.24 419.291 2940.24 411.782C2940.24 405.774 2943.62 399.766 2950.37 393.759C2985.67 359.966 3037.86 343.069 3106.95 343.069C3186.55 343.069 3237.62 369.728 3260.14 423.046C3267.65 441.82 3271.41 463.598 3271.41 488.379L3269.16 748.586C3269.16 758.349 3265.78 765.858 3259.02 771.115C3252.26 776.372 3244.75 779 3236.49 779C3228.23 779 3220.72 776.747 3213.96 772.241C3207.2 767.736 3203.82 760.226 3203.82 749.713V709.161C3185.8 748.211 3153.51 772.617 3106.95 782.379C3092.68 786.134 3076.54 788.011 3058.51 788.011C3040.49 788.011 3022.47 785.383 3004.44 780.126C2987.17 774.87 2971.78 766.609 2958.26 755.345C2930.47 732.065 2916.58 700.525 2916.58 660.724C2916.58 566.103 2996.56 518.793 3156.51 518.793ZM3203.82 569.483C3191.81 570.985 3177.92 571.736 3162.14 571.736C3146.37 571.736 3130.23 572.111 3113.71 572.862C3097.19 572.862 3081.42 574.739 3066.4 578.494C3051.38 581.498 3037.86 586.379 3025.85 593.138C3000.31 606.655 2986.8 628.808 2985.29 659.598C2985.29 683.628 2995.06 702.402 3014.58 715.92C3029.6 727.935 3051 734.318 3078.79 735.069C3112.58 735.069 3141.87 724.18 3166.65 702.402C3189.18 681.375 3201.57 649.835 3203.82 607.782V569.483ZM3625.98 754.218C3625.98 776.747 3599.32 788.011 3546 788.011C3506.2 788.011 3478.04 777.123 3461.52 755.345C3443.49 732.065 3433.73 693.766 3432.23 640.448V403.897H3382.66C3373.65 403.897 3366.52 401.268 3361.26 396.012C3356.01 390.004 3353.38 383.996 3353.38 377.989C3353.38 371.981 3355.63 365.973 3360.14 359.966C3364.64 353.958 3372.15 350.954 3382.66 350.954H3436.73L3441.24 229.299C3442.74 220.287 3446.87 213.529 3453.63 209.023C3460.39 203.766 3467.52 201.138 3475.03 201.138C3482.54 201.138 3488.93 203.391 3494.18 207.897C3499.44 212.402 3502.07 219.536 3502.07 229.299V350.954H3579.79C3588.8 350.954 3595.56 353.958 3600.07 359.966C3605.32 365.973 3607.95 371.981 3607.95 377.989C3607.95 385.498 3605.32 391.881 3600.07 397.138C3595.56 401.644 3588.8 403.897 3579.79 403.897H3502.07V603.276C3502.07 658.847 3503.94 692.64 3507.7 704.655C3511.45 715.92 3517.46 723.805 3525.72 728.31C3533.98 732.816 3544.12 735.069 3556.14 735.069L3600.07 731.69C3608.33 731.69 3614.71 734.318 3619.22 739.575C3623.72 744.831 3625.98 749.713 3625.98 754.218ZM4067.12 747.46C4067.12 757.973 4062.99 765.858 4054.73 771.115C4047.22 776.372 4040.46 779 4034.45 779C4029.19 779 4024.31 778.625 4019.81 777.874C4015.3 776.372 4011.55 773.743 4008.54 769.989C4001.03 764.732 3997.28 757.222 3997.28 747.46V708.034C3979.26 747.835 3946.21 772.617 3898.15 782.379C3883.13 786.134 3866.99 788.011 3849.72 788.011C3832.44 788.011 3814.42 785.008 3795.65 779C3776.87 772.992 3760.73 763.23 3747.21 749.713C3717.17 721.176 3702.15 678.372 3702.15 621.299V384.747C3702.15 374.234 3705.53 365.973 3712.29 359.966C3719.05 353.958 3726.93 350.954 3735.95 350.954C3744.96 350.954 3752.84 353.958 3759.6 359.966C3766.36 365.973 3769.74 374.234 3769.74 384.747V626.931C3769.74 667.483 3778 695.644 3794.52 711.414C3811.04 727.184 3835.82 735.069 3868.87 735.069C3924.44 735.069 3962.73 712.54 3983.76 667.483C3992.02 651.713 3996.53 633.69 3997.28 613.414V384.747C3997.28 374.234 4001.03 365.973 4008.54 359.966C4016.05 353.958 4024.31 350.954 4033.33 350.954C4042.34 350.954 4050.22 353.958 4056.98 359.966C4063.74 365.973 4067.12 374.234 4067.12 384.747V747.46ZM4198.85 383.621C4198.85 373.858 4202.61 365.973 4210.12 359.966C4217.63 353.958 4225.14 350.954 4232.64 350.954C4248.42 350.954 4258.55 356.962 4263.06 368.977C4267.56 380.992 4268.69 399.015 4266.44 423.046C4275.45 400.517 4294.97 380.992 4325.01 364.471C4351.3 350.203 4377.2 343.069 4402.74 343.069C4429.02 343.069 4451.17 346.448 4469.2 353.207C4487.22 359.215 4503.74 368.977 4518.76 382.494C4548.8 411.031 4563.82 453.084 4563.82 508.655V747.46C4563.82 757.973 4559.69 765.858 4551.43 771.115C4543.92 776.372 4536.03 779 4527.77 779C4518.76 779 4510.87 776.372 4504.12 771.115C4497.36 765.107 4493.98 757.222 4493.98 747.46V504.149C4493.98 468.854 4484.22 441.82 4464.69 423.046C4446.67 405.023 4424.14 396.012 4397.1 396.012C4361.06 396.012 4330.27 406.525 4304.74 427.552C4279.2 450.08 4266.44 484.625 4266.44 531.184V747.46C4266.44 757.973 4262.68 765.858 4255.17 771.115C4247.66 776.372 4239.4 779 4230.39 779C4221.38 779 4213.87 776.372 4207.86 771.115C4201.86 765.107 4198.85 757.222 4198.85 747.46V383.621ZM5296.34 238.31L5138.64 729.437C5134.14 745.958 5125.5 758.349 5112.74 766.609C5099.97 774.87 5086.83 779 5073.31 779C5059.79 779 5047.4 775.245 5036.14 767.736C5024.87 759.475 5016.99 746.709 5012.48 729.437L4872.8 211.276C4869.8 203.766 4869.8 196.632 4872.8 189.874C4876.56 183.115 4880.69 177.858 4885.2 174.103C4894.21 167.345 4903.22 163.966 4912.23 163.966C4930.25 163.966 4941.14 172.226 4944.9 188.747L5077.82 713.667L5242.28 209.023C5246.78 194.755 5253.92 183.866 5263.68 176.356C5273.44 168.096 5284.7 163.966 5297.47 163.966C5308.74 163.966 5319.25 168.096 5329.01 176.356C5339.52 183.866 5347.41 194.755 5352.67 209.023L5521.63 713.667L5655.68 191C5660.18 172.977 5671.07 163.966 5688.34 163.966C5702.61 163.966 5714.25 170.724 5723.26 184.241C5725.52 188.747 5725.89 192.126 5724.39 194.379C5724.39 199.636 5724.01 204.142 5723.26 207.897L5581.33 729.437C5576.08 753.467 5562.56 768.862 5540.78 775.621C5535.52 777.874 5527.26 779 5516 779C5505.49 779 5494.22 775.245 5482.21 767.736C5470.94 759.475 5462.31 746.709 5456.3 729.437L5296.34 238.31ZM6008.47 518.793C6024.24 518.793 6040.01 519.169 6055.78 519.92V483.874C6055.78 425.299 6023.11 396.012 5957.78 396.012C5928.49 396.012 5907.09 398.64 5893.57 403.897C5869.54 412.908 5852.27 420.793 5841.75 427.552C5831.24 433.559 5822.98 436.563 5816.97 436.563C5810.96 436.563 5805.33 434.31 5800.08 429.805C5794.82 425.299 5792.19 419.291 5792.19 411.782C5792.19 405.774 5795.57 399.766 5802.33 393.759C5837.62 359.966 5889.81 343.069 5958.9 343.069C6038.5 343.069 6089.57 369.728 6112.1 423.046C6119.61 441.82 6123.36 463.598 6123.36 488.379L6121.11 748.586C6121.11 758.349 6117.73 765.858 6110.97 771.115C6104.21 776.372 6096.7 779 6088.44 779C6080.18 779 6072.67 776.747 6065.91 772.241C6059.16 767.736 6055.78 760.226 6055.78 749.713V709.161C6037.75 748.211 6005.46 772.617 5958.9 782.379C5944.63 786.134 5928.49 788.011 5910.47 788.011C5892.44 788.011 5874.42 785.383 5856.4 780.126C5839.12 774.87 5823.73 766.609 5810.21 755.345C5782.43 732.065 5768.53 700.525 5768.53 660.724C5768.53 566.103 5848.51 518.793 6008.47 518.793ZM6055.78 569.483C6043.76 570.985 6029.87 571.736 6014.1 571.736C5998.33 571.736 5982.18 572.111 5965.66 572.862C5949.14 572.862 5933.37 574.739 5918.35 578.494C5903.33 581.498 5889.81 586.379 5877.8 593.138C5852.27 606.655 5838.75 628.808 5837.25 659.598C5837.25 683.628 5847.01 702.402 5866.53 715.92C5881.55 727.935 5902.96 734.318 5930.74 735.069C5964.53 735.069 5993.82 724.18 6018.6 702.402C6041.13 681.375 6053.52 649.835 6055.78 607.782V569.483ZM6403.58 396.012C6338.25 396.012 6306.33 416.663 6307.84 457.966C6307.84 484.249 6326.61 502.272 6364.16 512.034C6376.92 515.789 6390.44 519.169 6404.71 522.172C6419.73 525.176 6435.87 528.931 6453.15 533.437C6470.42 537.192 6488.07 542.448 6506.09 549.207C6531.62 556.716 6551.15 569.483 6564.66 587.506C6578.93 604.778 6586.07 625.805 6586.07 650.586C6586.07 695.644 6566.92 730.563 6528.62 755.345C6494.07 777.874 6450.52 788.762 6397.95 788.011C6358.9 788.011 6320.6 781.253 6283.05 767.736C6268.04 761.728 6256.02 754.594 6247.01 746.333C6238 738.073 6233.49 730.188 6233.49 722.678C6233.49 715.169 6235.74 709.161 6240.25 704.655C6245.51 700.149 6251.51 697.897 6258.27 697.897C6265.03 697.897 6272.54 699.774 6280.8 703.529C6289.81 707.284 6301.08 711.414 6314.59 715.92C6349.14 728.686 6376.92 735.069 6397.95 735.069C6418.98 735.069 6435.87 733.943 6448.64 731.69C6461.41 728.686 6473.05 724.18 6483.56 718.172C6506.09 703.153 6517.35 683.628 6517.35 659.598C6517.35 642.326 6511.72 629.184 6500.46 620.172C6489.94 610.41 6476.05 602.9 6458.78 597.644C6442.26 592.387 6425.74 587.881 6409.22 584.126C6392.69 580.372 6376.17 576.617 6359.65 572.862C6343.13 569.107 6327.36 564.602 6312.34 559.345C6297.32 554.088 6284.56 546.954 6274.04 537.943C6248.51 519.92 6235.74 494.387 6235.74 461.345C6235.74 419.291 6253.39 388.877 6288.69 370.103C6317.97 352.08 6356.65 343.069 6404.71 343.069C6453.52 343.069 6492.57 350.203 6521.86 364.471C6546.64 377.238 6559.03 391.506 6559.03 407.276C6559.03 413.284 6556.4 418.165 6551.15 421.92C6546.64 425.674 6541.38 427.552 6535.38 427.552C6524.11 427.552 6515.48 425.674 6509.47 421.92C6504.21 418.165 6498.2 414.41 6491.45 410.655C6484.69 406.9 6476.8 404.272 6467.79 402.77C6451.27 398.264 6429.87 396.012 6403.58 396.012ZM6773.98 202.264C6773.98 214.28 6769.85 224.042 6761.59 231.552C6753.33 239.061 6741.69 242.816 6726.67 242.816C6711.65 242.816 6700.01 239.061 6691.75 231.552C6683.49 224.042 6679.36 214.28 6679.36 202.264C6679.36 191.751 6683.49 182.739 6691.75 175.23C6700.01 167.72 6711.65 163.966 6726.67 163.966C6742.44 163.966 6754.08 167.72 6761.59 175.23C6769.85 182.739 6773.98 191.751 6773.98 202.264ZM6692.88 387C6692.88 375.736 6696.63 367.1 6704.14 361.092C6711.65 354.333 6718.41 350.954 6724.42 350.954C6730.42 350.954 6735.3 352.08 6739.06 354.333C6742.81 355.835 6746.57 358.464 6750.32 362.218C6758.58 367.475 6762.71 375.736 6762.71 387V745.207C6762.71 756.471 6758.96 765.107 6751.45 771.115C6743.94 776.372 6735.68 779 6726.67 779C6717.66 779 6709.77 776.372 6703.01 771.115C6696.25 765.107 6692.88 756.471 6692.88 745.207V387ZM7537.11 201.138C7537.11 183.866 7545.75 172.602 7563.02 167.345C7567.52 166.594 7573.16 165.843 7579.92 165.092C7586.67 164.341 7594.18 166.969 7602.44 172.977C7610.7 178.985 7614.84 188.372 7614.84 201.138V741.828C7614.84 753.092 7611.46 761.728 7604.7 767.736C7595.69 775.245 7585.92 779 7575.41 779C7565.65 779 7556.64 775.996 7548.38 769.989C7540.87 763.981 7537.11 754.594 7537.11 741.828V491.759H7213.82V741.828C7213.82 753.092 7210.82 761.728 7204.81 767.736C7195.8 775.245 7186.04 779 7175.52 779C7165.01 779 7156 775.996 7148.49 769.989C7140.98 763.981 7137.23 754.594 7137.23 741.828V201.138C7137.23 183.866 7145.49 172.602 7162.01 167.345C7166.51 166.594 7172.15 165.843 7178.9 165.092C7185.66 164.341 7193.17 166.969 7201.43 172.977C7209.69 178.985 7213.82 188.372 7213.82 201.138V427.552H7537.11V201.138ZM8129.72 747.46C8129.72 757.973 8125.59 765.858 8117.32 771.115C8109.82 776.372 8103.06 779 8097.05 779C8091.79 779 8086.91 778.625 8082.41 777.874C8077.9 776.372 8074.14 773.743 8071.14 769.989C8063.63 764.732 8059.88 757.222 8059.88 747.46V708.034C8041.85 747.835 8008.81 772.617 7960.75 782.379C7945.73 786.134 7929.59 788.011 7912.31 788.011C7895.04 788.011 7877.02 785.008 7858.24 779C7839.47 772.992 7823.32 763.23 7809.81 749.713C7779.77 721.176 7764.75 678.372 7764.75 621.299V384.747C7764.75 374.234 7768.13 365.973 7774.89 359.966C7781.65 353.958 7789.53 350.954 7798.54 350.954C7807.55 350.954 7815.44 353.958 7822.2 359.966C7828.96 365.973 7832.34 374.234 7832.34 384.747V626.931C7832.34 667.483 7840.6 695.644 7857.12 711.414C7873.64 727.184 7898.42 735.069 7931.46 735.069C7987.03 735.069 8025.33 712.54 8046.36 667.483C8054.62 651.713 8059.13 633.69 8059.88 613.414V384.747C8059.88 374.234 8063.63 365.973 8071.14 359.966C8078.65 353.958 8086.91 350.954 8095.92 350.954C8104.93 350.954 8112.82 353.958 8119.58 359.966C8126.34 365.973 8129.72 374.234 8129.72 384.747V747.46ZM8464.21 518.793C8479.98 518.793 8495.75 519.169 8511.52 519.92V483.874C8511.52 425.299 8478.85 396.012 8413.52 396.012C8384.23 396.012 8362.83 398.64 8349.31 403.897C8325.28 412.908 8308.01 420.793 8297.5 427.552C8286.98 433.559 8278.72 436.563 8272.71 436.563C8266.71 436.563 8261.07 434.31 8255.82 429.805C8250.56 425.299 8247.93 419.291 8247.93 411.782C8247.93 405.774 8251.31 399.766 8258.07 393.759C8293.37 359.966 8345.56 343.069 8414.64 343.069C8494.25 343.069 8545.31 369.728 8567.84 423.046C8575.35 441.82 8579.1 463.598 8579.1 488.379L8576.85 748.586C8576.85 758.349 8573.47 765.858 8566.71 771.115C8559.96 776.372 8552.45 779 8544.19 779C8535.92 779 8528.42 776.747 8521.66 772.241C8514.9 767.736 8511.52 760.226 8511.52 749.713V709.161C8493.5 748.211 8461.2 772.617 8414.64 782.379C8400.38 786.134 8384.23 788.011 8366.21 788.011C8348.19 788.011 8330.16 785.383 8312.14 780.126C8294.87 774.87 8279.47 766.609 8265.96 755.345C8238.17 732.065 8224.28 700.525 8224.28 660.724C8224.28 566.103 8304.25 518.793 8464.21 518.793ZM8511.52 569.483C8499.5 570.985 8485.61 571.736 8469.84 571.736C8454.07 571.736 8437.92 572.111 8421.4 572.862C8404.88 572.862 8389.11 574.739 8374.09 578.494C8359.07 581.498 8345.56 586.379 8333.54 593.138C8308.01 606.655 8294.49 628.808 8292.99 659.598C8292.99 683.628 8302.75 702.402 8322.28 715.92C8337.3 727.935 8358.7 734.318 8386.48 735.069C8420.28 735.069 8449.56 724.18 8474.35 702.402C8496.87 681.375 8509.27 649.835 8511.52 607.782V569.483ZM8775.97 423.046C8793.99 369.728 8833.42 343.069 8894.25 343.069C8905.51 343.069 8913.77 346.448 8919.03 353.207C8925.03 359.215 8928.04 365.973 8928.04 373.483C8928.04 380.241 8925.03 387 8919.03 393.759C8913.77 399.766 8903.63 402.77 8888.61 402.77C8873.59 402.77 8858.57 405.774 8843.56 411.782C8828.54 417.789 8816.15 426.425 8806.38 437.69C8786.11 462.471 8775.97 495.138 8775.97 535.69V747.46C8775.97 757.973 8772.21 765.858 8764.7 771.115C8757.2 776.372 8750.44 779 8744.43 779C8738.42 779 8733.54 778.625 8729.79 777.874C8726.03 776.372 8722.28 773.743 8718.52 769.989C8711.76 765.483 8708.38 757.973 8708.38 747.46V384.747C8708.38 374.985 8711.76 367.1 8718.52 361.092C8725.28 354.333 8733.54 350.954 8743.3 350.954C8753.82 350.954 8761.7 354.333 8766.96 361.092C8772.97 367.1 8775.97 374.985 8775.97 384.747V423.046ZM9215.48 518.793C9231.25 518.793 9247.02 519.169 9262.79 519.92V483.874C9262.79 425.299 9230.12 396.012 9164.79 396.012C9135.5 396.012 9114.1 398.64 9100.58 403.897C9076.55 412.908 9059.28 420.793 9048.76 427.552C9038.25 433.559 9029.99 436.563 9023.98 436.563C9017.98 436.563 9012.34 434.31 9007.09 429.805C9001.83 425.299 8999.2 419.291 8999.2 411.782C8999.2 405.774 9002.58 399.766 9009.34 393.759C9044.63 359.966 9096.83 343.069 9165.91 343.069C9245.52 343.069 9296.58 369.728 9319.11 423.046C9326.62 441.82 9330.37 463.598 9330.37 488.379L9328.12 748.586C9328.12 758.349 9324.74 765.858 9317.98 771.115C9311.22 776.372 9303.72 779 9295.45 779C9287.19 779 9279.68 776.747 9272.93 772.241C9266.17 767.736 9262.79 760.226 9262.79 749.713V709.161C9244.77 748.211 9212.47 772.617 9165.91 782.379C9151.65 786.134 9135.5 788.011 9117.48 788.011C9099.45 788.011 9081.43 785.383 9063.41 780.126C9046.14 774.87 9030.74 766.609 9017.22 755.345C8989.44 732.065 8975.55 700.525 8975.55 660.724C8975.55 566.103 9055.52 518.793 9215.48 518.793ZM9262.79 569.483C9250.77 570.985 9236.88 571.736 9221.11 571.736C9205.34 571.736 9189.19 572.111 9172.67 572.862C9156.15 572.862 9140.38 574.739 9125.36 578.494C9110.34 581.498 9096.83 586.379 9084.81 593.138C9059.28 606.655 9045.76 628.808 9044.26 659.598C9044.26 683.628 9054.02 702.402 9073.55 715.92C9088.57 727.935 9109.97 734.318 9137.75 735.069C9171.55 735.069 9200.83 724.18 9225.62 702.402C9248.14 681.375 9260.54 649.835 9262.79 607.782V569.483ZM9730 721.552C9739.01 721.552 9746.14 724.931 9751.4 731.69C9756.66 737.697 9759.28 743.705 9759.28 749.713C9759.28 757.973 9757.03 765.107 9752.53 771.115C9748.02 776.372 9740.51 779 9730 779H9463.03C9451.77 779 9442.76 775.996 9436 769.989C9429.24 763.981 9425.86 757.222 9425.86 749.713C9425.86 737.697 9428.86 727.935 9434.87 720.425L9678.18 409.529H9459.65C9450.64 409.529 9443.51 406.525 9438.25 400.517C9432.99 394.51 9430.37 387.751 9430.37 380.241C9430.37 372.732 9432.62 365.973 9437.12 359.966C9441.63 353.958 9449.14 350.954 9459.65 350.954H9723.24C9735.25 350.954 9745.02 354.333 9752.53 361.092C9760.04 367.1 9763.79 373.483 9763.79 380.241C9763.79 391.506 9760.41 402.019 9753.65 411.782L9513.72 721.552H9730Z" fill="black"/>
</g>
<g filter="url(#filter1_d_102_6)">
<rect x="721.188" y="197.871" width="527.223" height="673.023" fill="#F1900C"/>
<rect x="878.704" y="156.214" width="527.223" height="673.023" fill="#F1900C"/>
<rect x="762.846" y="136.688" width="527.223" height="673.023" fill="#F1900C"/>
<rect x="930.775" y="68.9941" width="251.244" height="673.023" fill="#F1900C"/>
<path d="M1064.86 3.25452V6.50897H1051.84H1038.82V9.76343C1038.82 12.8877 1038.43 13.0179 1031.66 13.0179C1025.42 13.0179 1024.5 13.2783 1024.5 15.6215C1024.5 17.7043 1023.33 18.3552 1018 19.0061C1012.27 19.7872 1011.49 20.1777 1011.49 22.9114C1011.49 25.9055 1011.1 26.0357 1002.37 26.0357C993.522 26.0357 993.262 26.1659 993.262 29.2902C993.262 32.2843 992.871 32.5446 986.753 32.5446C980.634 32.5446 980.244 32.805 980.244 35.7991C980.244 38.7932 979.853 39.0536 973.735 39.0536C967.616 39.0536 967.226 39.3139 967.226 42.308C967.226 45.4323 966.966 45.5625 957.463 45.5625C947.959 45.5625 947.699 45.6927 947.699 48.817C947.699 51.811 947.309 52.0714 941.19 52.0714C935.072 52.0714 934.681 52.3318 934.681 55.3259C934.681 58.3199 934.291 58.5803 928.172 58.5803C922.054 58.5803 921.663 58.8407 921.663 61.8348C921.663 64.8289 921.273 65.0892 915.155 65.0892C909.036 65.0892 908.646 65.3496 908.646 68.3437C908.646 71.3378 908.255 71.5981 902.137 71.5981C896.018 71.5981 895.628 71.8585 895.628 74.8527C895.628 77.8467 895.237 78.1071 889.119 78.1071C883 78.1071 882.61 78.3674 882.61 81.3616C882.61 84.4858 882.219 84.616 875.45 84.616C868.681 84.616 868.29 84.7462 868.29 87.8705C868.29 90.8646 867.9 91.1249 861.781 91.1249C855.663 91.1249 855.272 91.3853 855.272 94.3794C855.272 97.3735 854.882 97.6339 848.763 97.6339C842.645 97.6339 842.255 97.8942 842.255 100.888C842.255 103.882 841.864 104.143 835.746 104.143C829.627 104.143 829.237 104.403 829.237 107.397C829.237 110.261 828.716 110.652 824.16 110.652C815.698 110.652 811.012 112.084 811.012 114.557C811.012 116.249 809.45 117.03 804.503 117.681C799.296 118.332 797.994 119.113 797.994 120.936C797.994 122.888 796.562 123.539 790.834 124.32C785.106 124.971 783.674 125.622 783.674 127.575C783.674 129.397 782.242 130.178 777.165 130.829C772.088 131.48 770.656 132.261 770.656 134.084C770.656 135.906 769.224 136.687 764.148 137.338C759.071 137.989 757.639 138.77 757.639 140.593C757.639 142.415 756.207 143.196 751.13 143.847C746.053 144.498 744.621 145.279 744.621 147.102C744.621 148.924 743.189 149.705 738.112 150.356C733.035 151.007 731.603 151.788 731.603 153.611C731.603 155.433 730.171 156.214 725.094 156.865C720.017 157.516 718.585 158.297 718.585 160.12C718.585 161.942 717.153 162.723 712.076 163.374C706.869 164.155 705.567 164.806 705.567 166.759C705.567 168.581 704.656 169.232 702.313 169.232C699.709 169.232 699.058 169.883 699.058 172.486C699.058 175.35 698.538 175.741 694.242 175.741C684.869 175.741 679.531 177.173 679.531 179.646C679.531 181.469 678.1 182.25 673.023 182.901C667.946 183.552 666.514 184.333 666.514 186.155C666.514 187.978 665.082 188.759 660.005 189.41C654.928 190.061 653.496 190.842 653.496 192.664C653.496 194.487 652.064 195.268 646.987 195.919C641.91 196.569 640.478 197.351 640.478 199.173C640.478 200.996 639.046 201.777 633.969 202.427C628.892 203.078 627.46 203.859 627.46 205.682C627.46 207.504 626.028 208.286 620.951 208.936C615.874 209.587 614.442 210.368 614.442 212.191C614.442 214.013 613.01 214.794 607.933 215.445C602.856 216.096 601.424 216.877 601.424 218.7C601.424 220.522 599.992 221.303 594.916 221.954C589.839 222.605 588.407 223.386 588.407 225.209C588.407 227.682 583.069 229.114 573.827 229.114C569.921 229.114 569.01 229.635 568.62 231.978C568.229 234.582 567.318 234.972 562.111 235.363C557.034 235.753 555.862 236.274 555.862 238.227C555.862 240.179 554.56 240.83 548.702 241.481C542.974 242.262 541.542 242.913 541.542 244.735C541.542 246.558 540.11 247.339 535.033 247.99C529.956 248.641 528.525 249.422 528.525 251.244C528.525 253.588 523.187 255.15 514.595 255.15C511.341 255.15 510.43 255.801 510.039 258.014C509.649 260.617 508.737 261.008 503.53 261.398C498.453 261.789 497.282 262.31 497.282 264.262C497.282 266.215 495.98 266.866 490.122 267.517C484.394 268.298 482.962 268.949 482.962 270.901C482.962 272.724 481.66 273.505 476.453 274.156C471.376 274.807 469.944 275.458 469.944 277.41C469.944 279.233 468.512 280.014 463.435 280.665C458.358 281.316 456.926 281.967 456.926 283.919C456.926 285.742 455.494 286.523 450.417 287.174C445.471 287.825 443.909 288.606 443.909 290.298C443.909 292.641 438.571 294.203 429.979 294.203C426.725 294.203 425.814 294.854 425.423 297.067C425.033 299.671 424.121 300.061 418.914 300.452C413.837 300.842 412.796 301.233 412.405 303.706C412.145 305.789 410.973 306.7 408.5 306.961C406.027 307.221 404.855 308.132 404.855 309.825C404.855 311.647 403.423 312.428 398.346 313.079C393.139 313.73 391.837 314.511 391.837 316.464C391.837 318.417 390.535 319.067 385.328 319.718C379.6 320.499 378.819 320.89 378.819 323.624C378.819 326.488 378.299 326.748 372.31 326.748C366.192 326.748 365.801 327.008 365.801 330.002C365.801 332.996 365.411 333.257 359.293 333.257C353.174 333.257 352.784 333.517 352.784 336.511C352.784 339.115 352.133 339.766 349.529 339.766C347.186 339.766 346.275 340.417 346.275 342.239C346.275 344.843 341.198 346.275 331.695 346.275C327.269 346.275 326.748 346.665 326.748 349.529C326.748 352.523 326.357 352.784 320.239 352.784C314.121 352.784 313.73 353.044 313.73 356.038C313.73 359.162 313.47 359.293 303.967 359.293C294.464 359.293 294.203 359.423 294.203 362.547C294.203 365.541 293.813 365.801 287.825 365.801C282.097 365.801 281.316 366.192 280.925 368.665C280.535 371.529 279.884 371.659 267.907 372.05C255.28 372.441 255.15 372.441 255.15 375.565C255.15 378.689 254.889 378.819 245.386 378.819C235.883 378.819 235.623 378.949 235.623 382.074C235.623 385.068 235.232 385.328 229.244 385.328C223.516 385.328 222.735 385.719 222.345 388.192C221.954 390.796 221.043 391.186 215.836 391.577C210.238 391.967 209.587 392.228 209.587 395.222C209.587 398.216 209.197 398.346 202.427 398.346C195.658 398.346 195.268 398.476 195.268 401.601C195.268 404.595 194.877 404.855 188.759 404.855C182.64 404.855 182.25 405.115 182.25 408.109C182.25 411.104 181.729 411.364 176.392 411.364C171.054 411.364 170.534 411.624 170.534 414.618C170.534 417.352 169.883 417.873 166.628 417.873C163.374 417.873 162.723 418.394 162.723 421.127C162.723 424.121 162.333 424.382 156.214 424.382C150.096 424.382 149.705 424.642 149.705 427.636C149.705 430.63 149.185 430.891 143.847 430.891C138.51 430.891 137.989 431.151 137.989 434.145C137.989 436.879 137.338 437.4 134.084 437.4C130.829 437.4 130.178 437.92 130.178 440.654C130.178 443.258 129.528 443.909 126.924 443.909C124.32 443.909 123.67 444.559 123.67 447.033C123.67 450.027 123.019 450.287 117.421 450.678C112.344 451.068 111.303 451.459 110.912 453.802C110.652 456.015 109.35 456.796 104.663 457.577C100.107 458.228 98.9356 458.879 98.9356 460.962C98.9356 462.784 98.0244 463.435 95.0303 463.435C91.7758 463.435 91.1249 463.956 91.1249 466.69C91.1249 469.684 90.6042 469.944 85.2669 469.944C79.9296 469.944 79.4089 470.205 79.4089 473.069C79.4089 475.802 78.6278 476.193 72.8999 476.974C67.6928 477.625 66.391 478.276 66.391 480.358C66.391 482.441 65.2194 482.832 59.4916 483.222C53.6335 483.613 52.7223 484.003 52.3317 486.477C51.9412 489.341 51.2903 489.471 42.1778 489.471C32.805 489.471 32.5446 489.601 32.5446 492.725C32.5446 495.589 32.0239 495.98 27.728 495.98C18.0948 495.98 13.0178 497.412 13.0178 500.015C13.0178 501.838 12.1066 502.489 9.76338 502.489C7.15981 502.489 6.50892 503.14 6.50892 505.743C6.50892 508.347 5.85803 508.998 3.25446 508.998C0.260357 508.998 0 509.388 0 515.376V521.625L6.11839 522.536C9.50303 522.927 21.2191 522.927 32.1541 522.536C51.9412 521.625 52.0714 521.625 52.0714 518.501C52.0714 515.767 52.5921 515.507 58.5803 515.507C64.6987 515.507 65.0892 515.246 65.0892 512.252V508.998H81.2314C97.1131 508.998 97.5037 508.868 97.8942 506.004C98.2847 503.27 98.9356 503.14 111.042 502.749C123.539 502.359 123.67 502.359 123.67 499.234C123.67 496.24 124.19 495.98 130.178 495.98C136.297 495.98 136.687 495.72 136.687 492.725C136.687 489.731 137.078 489.471 143.196 489.471C149.315 489.471 149.705 489.211 149.705 486.217C149.705 483.222 150.096 482.962 156.214 482.962C162.333 482.962 162.723 482.702 162.723 479.708C162.723 476.714 163.114 476.453 169.232 476.453C175.35 476.453 175.741 476.193 175.741 473.199C175.741 470.465 176.392 469.944 179.646 469.944C182.64 469.944 183.552 469.293 183.552 467.471C183.552 464.867 187.978 463.435 196.7 463.435C201.256 463.435 201.777 463.045 201.777 460.181C201.777 457.057 202.167 456.926 208.936 456.926C215.706 456.926 216.096 456.796 216.096 453.672C216.096 450.678 216.487 450.417 222.605 450.417C228.724 450.417 229.114 450.157 229.114 447.163C229.114 444.039 229.374 443.909 238.877 443.909C248.38 443.909 248.641 443.778 248.641 440.654C248.641 437.53 248.901 437.4 258.404 437.4C267.907 437.4 268.168 437.269 268.168 434.145C268.168 431.021 268.428 430.891 277.931 430.891C287.434 430.891 287.694 430.76 287.694 427.636C287.694 424.512 287.955 424.382 297.458 424.382C306.961 424.382 307.221 424.252 307.221 421.127C307.221 418.133 307.612 417.873 313.73 417.873C319.848 417.873 320.239 417.612 320.239 414.618C320.239 411.494 320.499 411.364 330.002 411.364C339.505 411.364 339.766 411.234 339.766 408.109C339.766 404.985 340.026 404.855 349.529 404.855C359.032 404.855 359.293 404.725 359.293 401.601C359.293 398.606 359.683 398.346 365.801 398.346C371.92 398.346 372.31 398.086 372.31 395.092C372.31 392.098 372.701 391.837 378.819 391.837C384.938 391.837 385.328 391.577 385.328 388.583C385.328 385.719 385.849 385.328 390.275 385.328C399.778 385.328 404.855 383.896 404.855 381.293C404.855 379.08 405.896 378.819 414.618 378.819C424.121 378.819 424.382 378.689 424.382 375.565C424.382 372.441 424.642 372.31 433.364 372.31C445.861 372.31 450.417 371.269 450.417 368.275C450.417 366.062 451.459 365.801 459.4 365.801C471.897 365.801 476.453 364.76 476.453 361.766C476.453 359.683 477.495 359.293 482.962 359.293C489.08 359.293 489.471 359.032 489.471 356.038C489.471 353.044 489.992 352.784 495.199 352.784C504.311 352.784 508.998 351.482 508.998 348.878C508.998 347.186 510.56 346.405 515.507 345.754C520.584 345.103 522.016 344.322 522.016 342.5C522.016 340.547 523.448 339.896 528.525 339.245C533.602 338.594 535.033 337.813 535.033 335.991C535.033 334.038 536.465 333.387 541.542 332.736C546.619 332.085 548.051 331.304 548.051 329.482C548.051 327.529 549.483 326.878 554.56 326.227C559.767 325.576 561.069 324.925 561.069 322.843C561.069 321.15 562.111 320.239 564.714 319.979C567.188 319.718 568.359 318.807 568.62 316.724C569.01 314.251 570.051 313.86 575.128 313.47C580.336 313.079 581.247 312.689 581.637 310.215C582.028 307.742 583.069 307.351 588.146 306.961C593.223 306.57 594.395 306.05 594.655 303.836C594.916 301.623 596.217 300.842 600.904 300.061C605.33 299.41 606.632 298.76 606.632 296.807C606.632 295.115 607.673 294.203 610.277 293.943C612.75 293.683 613.922 292.771 614.182 290.819C614.572 287.825 619.389 286.393 628.502 286.393C631.756 286.393 632.667 285.872 632.667 283.919C632.667 281.967 633.969 281.316 639.827 280.535C645.555 279.884 646.987 279.233 646.987 277.41C646.987 274.807 652.324 273.375 661.697 273.375C665.472 273.375 666.514 272.854 666.514 270.901C666.514 268.298 671.591 266.866 681.224 266.866C685.129 266.866 686.04 266.345 686.04 264.262C686.04 262.31 686.952 261.659 689.295 261.659H692.549V339.766V417.873H695.804H699.058V516.158V614.442H702.313H705.567V745.272V876.101H708.822C711.295 876.101 712.076 876.752 712.076 879.095C712.076 882.089 712.336 882.089 724.834 881.959C731.733 881.829 768.704 881.699 806.846 881.568C873.237 881.308 876.101 881.178 876.101 878.965C876.101 876.752 877.663 876.361 890.811 875.71C898.752 875.19 928.042 874.799 955.9 874.799H1006.28V852.018V829.237H1003.02H999.771L999.51 757.248L999.12 685.39L996.256 684.999C993.522 684.608 993.262 683.827 993.262 677.188C993.262 665.212 991.96 660.005 989.226 660.005C987.404 660.005 986.753 659.093 986.753 656.75C986.753 654.147 986.102 653.496 983.628 653.496C980.895 653.496 980.504 652.715 979.723 646.987C979.072 641.65 978.421 640.478 976.338 640.478C974.386 640.478 973.735 639.567 973.735 637.223C973.735 634.62 973.084 633.969 970.611 633.969C968.137 633.969 967.356 633.188 966.966 630.324C966.705 627.851 965.794 626.679 963.711 626.419C961.889 626.158 960.717 624.987 960.457 623.164C960.196 621.342 959.025 620.17 957.202 619.91C955.38 619.649 954.208 618.478 953.948 616.655C953.687 614.833 952.516 613.661 950.693 613.401C948.871 613.141 947.699 611.969 947.439 610.146C947.178 608.324 946.007 607.152 944.184 606.892C942.362 606.632 941.19 605.46 940.93 603.637C940.669 601.815 939.498 600.643 937.806 600.383C935.593 600.123 934.811 598.821 934.161 594.395C933.249 588.797 933.119 588.667 927.521 587.756C922.445 587.105 921.663 586.584 921.663 583.72C921.663 581.247 921.013 580.596 918.409 580.596C915.805 580.596 915.155 579.945 915.155 577.341C915.155 574.738 914.504 574.087 912.03 574.087C909.687 574.087 908.776 573.306 908.385 571.093C908.125 569.01 906.953 568.099 904.48 567.838C901.876 567.578 900.835 566.667 900.835 564.974C900.835 563.412 899.793 562.371 897.971 562.111C896.018 561.85 894.847 560.679 894.586 558.856C894.326 557.034 893.154 555.862 891.332 555.602C889.509 555.341 888.338 554.17 888.077 552.347C887.687 550.004 886.515 549.353 881.959 548.572C877.403 547.921 876.101 547.14 875.841 544.927C875.58 542.974 874.409 542.063 871.935 541.803C869.332 541.542 868.29 540.631 868.29 538.939C868.29 536.986 866.988 536.335 862.562 535.684C857.876 534.903 856.574 534.122 856.314 531.909C856.053 529.696 854.882 529.175 849.805 528.785C844.728 528.394 843.687 528.004 843.296 525.53C842.905 522.927 841.994 522.666 833.533 522.276C825.201 521.885 824.03 521.625 824.03 519.412C824.03 517.459 822.728 516.808 817.26 516.158C813.485 515.767 805.935 515.507 800.597 515.767C791.615 516.158 790.834 516.418 790.444 519.021C790.053 521.625 789.142 521.885 780.68 522.276C772.219 522.666 771.307 522.927 770.917 525.53C770.526 527.743 769.355 528.525 764.017 529.175C758.94 529.956 757.639 530.607 757.639 532.56C757.639 534.383 756.727 535.033 754.384 535.033C751.781 535.033 751.13 535.684 751.13 538.158C751.13 540.761 750.349 541.412 745.272 542.063C740.585 542.844 739.414 543.495 739.414 545.578C739.414 547.4 738.502 548.051 735.508 548.051C732.514 548.051 731.603 547.531 731.603 545.448C731.603 543.495 730.692 542.844 728.348 542.844H725.094V480.358V417.873H728.348H731.603V404.855V391.837H734.857C737.851 391.837 738.112 391.447 738.112 385.328C738.112 379.21 738.372 378.819 741.366 378.819C743.97 378.819 744.621 379.47 744.621 382.074C744.621 384.677 745.272 385.328 747.875 385.328C750.479 385.328 751.13 385.979 751.13 388.583C751.13 391.186 751.781 391.837 754.384 391.837C757.378 391.837 757.639 392.228 757.639 398.346C757.639 404.334 757.899 404.855 760.763 404.855C763.497 404.855 764.017 405.636 764.798 411.364L765.71 417.873H771.438C776.645 417.873 777.165 418.133 777.165 421.127C777.165 423.731 777.816 424.382 780.42 424.382C783.023 424.382 783.674 425.033 783.674 427.636C783.674 430.63 784.065 430.891 790.183 430.891C796.302 430.891 796.692 431.151 796.692 434.145C796.692 437.269 796.952 437.4 806.456 437.4C815.959 437.4 816.219 437.53 816.219 440.654C816.219 443.778 816.479 443.909 825.982 443.909C835.485 443.909 835.746 443.778 835.746 440.654C835.746 438.051 836.397 437.4 839 437.4C841.994 437.4 842.255 437.009 842.255 430.891C842.255 424.772 841.994 424.382 839 424.382C836.006 424.382 835.746 423.991 835.746 417.873C835.746 411.754 835.485 411.364 832.491 411.364C829.888 411.364 829.237 410.713 829.237 408.109C829.237 405.766 828.586 404.855 826.763 404.855C824.811 404.855 824.16 403.553 823.379 398.346C822.728 393.269 821.947 391.837 820.124 391.837C816.609 391.837 816.219 386.109 817.13 342.5C818.041 296.416 817.391 288.085 813.225 287.434C810.751 287.043 810.361 286.132 809.97 280.795C809.58 275.327 809.319 274.677 806.325 274.677C803.852 274.677 803.201 274.026 803.201 271.422C803.201 268.818 802.55 268.168 799.947 268.168C797.343 268.168 796.692 267.517 796.692 264.913C796.692 262.31 796.041 261.659 793.438 261.659C790.834 261.659 790.183 261.008 790.183 258.534C790.183 256.191 789.402 255.28 787.319 254.889C785.367 254.629 784.195 253.457 783.935 251.635C783.674 249.812 782.503 248.641 780.68 248.38C778.988 248.12 777.686 246.949 777.426 245.256C777.035 242.783 775.864 242.392 767.142 241.611C761.674 241.221 754.384 240.83 750.869 240.83C745.532 240.83 744.621 240.44 744.621 238.227C744.621 236.274 745.532 235.623 747.875 235.623C750.479 235.623 751.13 234.972 751.13 232.499C751.13 229.765 751.911 229.244 757.508 228.463C762.846 227.812 764.017 227.031 764.408 224.818C764.668 222.996 765.84 221.824 767.792 221.564C769.615 221.303 770.656 220.262 770.656 218.7C770.656 216.877 772.088 216.096 777.165 215.445C782.242 214.794 783.674 214.013 783.674 212.191C783.674 210.368 785.106 209.587 790.183 208.936C795.26 208.286 796.692 207.504 796.692 205.682C796.692 203.99 797.864 203.078 800.337 202.818C802.81 202.558 803.982 201.646 804.242 199.694C804.633 196.569 808.799 195.268 817.651 195.268C821.817 195.268 822.728 194.747 822.728 192.794C822.728 190.711 824.03 190.061 829.888 189.41C835.615 188.629 837.047 187.978 837.047 186.025C837.047 184.203 838.349 183.421 843.556 182.771C848.633 182.12 850.065 181.339 850.065 179.646C850.065 177.824 851.497 177.043 856.574 176.392C861.651 175.741 863.083 174.96 863.083 173.137C863.083 170.664 868.42 169.232 877.793 169.232C881.699 169.232 882.61 168.711 882.61 166.628C882.61 164.546 883.781 163.895 889.119 163.244C894.066 162.593 895.628 161.812 895.628 160.12C895.628 157.776 900.965 156.214 909.557 156.214C912.811 156.214 913.723 155.563 914.113 153.22C914.373 151.137 915.545 150.226 918.149 149.966C920.492 149.705 921.663 148.794 921.663 147.102C921.663 145.279 923.095 144.498 928.172 143.847C933.38 143.196 934.681 142.415 934.681 140.463C934.681 138.51 935.983 137.859 941.19 137.208C946.267 136.557 947.699 135.776 947.699 134.084C947.699 132.261 949.131 131.48 954.208 130.829C959.285 130.178 960.717 129.397 960.717 127.575C960.717 125.232 966.054 123.67 974.646 123.67C977.901 123.67 978.812 123.019 979.202 120.675C979.463 118.593 980.634 117.681 983.238 117.421C985.581 117.161 986.753 116.249 986.753 114.687C986.753 111.953 991.309 110.652 1000.55 110.652C1005.76 110.652 1006.28 110.391 1006.28 107.397C1006.28 104.403 1006.67 104.143 1012.79 104.143C1018.26 104.143 1019.3 103.752 1019.3 101.669C1019.3 99.0658 1024.37 97.6339 1034.01 97.6339C1038.3 97.6339 1038.82 97.2433 1038.82 94.3794C1038.82 91.2551 1039.08 91.1249 1048.59 91.1249C1057.31 91.1249 1058.35 90.8646 1058.35 88.6516C1058.35 85.7876 1063.56 84.616 1076.32 84.616C1084.13 84.616 1084.39 84.7462 1084.39 87.8705C1084.39 90.9948 1084.65 91.1249 1094.15 91.1249C1103.65 91.1249 1103.91 91.2551 1103.91 94.3794C1103.91 96.983 1104.56 97.6339 1107.17 97.6339C1109.77 97.6339 1110.42 98.2847 1110.42 100.888C1110.42 103.882 1110.81 104.143 1116.93 104.143C1123.05 104.143 1123.44 104.403 1123.44 107.397C1123.44 110.391 1123.83 110.652 1129.95 110.652C1135.94 110.652 1136.46 110.912 1136.46 113.776C1136.46 116.51 1137.24 116.9 1142.97 117.681C1148.17 118.332 1149.48 118.983 1149.48 120.936C1149.48 122.888 1150.78 123.67 1155.98 124.32C1161.06 124.971 1162.49 125.752 1162.49 127.575C1162.49 129.397 1163.93 130.178 1169 130.829C1174.08 131.48 1175.51 132.261 1175.51 134.084C1175.51 135.776 1176.94 136.557 1182.02 137.208C1187.1 137.859 1188.53 138.64 1188.53 140.463C1188.53 142.415 1189.96 143.066 1195.04 143.717C1200.25 144.368 1201.55 145.149 1201.55 146.971C1201.55 148.924 1202.98 149.575 1208.71 150.356C1214.56 151.007 1215.87 151.658 1215.87 153.611C1215.87 155.563 1217.04 156.084 1222.12 156.474C1227.32 156.865 1228.23 157.256 1228.62 159.729C1229.01 162.202 1229.93 162.723 1233.83 162.723C1243.07 162.723 1248.41 164.155 1248.41 166.628C1248.41 168.711 1250.1 169.102 1260.78 169.883C1271.32 170.664 1273.15 171.185 1273.15 173.137C1273.15 175.09 1274.97 175.611 1286.81 176.392C1299.05 177.173 1300.48 177.563 1300.48 179.776C1300.48 181.859 1301.52 182.25 1307.51 182.25C1320.14 182.25 1326.52 183.682 1326.52 186.285C1326.52 188.238 1327.56 188.759 1331.47 188.759C1340.58 188.759 1346.05 190.191 1346.05 192.664C1346.05 195.007 1351.38 196.569 1359.97 196.569C1363.23 196.569 1364.14 197.22 1364.53 199.433C1364.92 202.037 1365.83 202.427 1371.04 202.818C1376.12 203.209 1377.16 203.599 1377.55 206.073C1377.81 208.155 1378.98 209.067 1381.58 209.327C1383.93 209.587 1385.1 210.499 1385.1 212.191C1385.1 214.013 1386.53 214.794 1391.61 215.445C1397.34 216.226 1398.12 216.747 1398.12 219.481C1398.12 221.954 1398.77 222.605 1401.5 222.605C1404.63 222.605 1404.76 222.866 1404.37 228.724C1403.97 234.061 1403.58 234.972 1401.11 235.363L1398.12 235.753V268.298V300.712H1394.86H1391.61V342.76C1391.61 394.311 1390.96 404.855 1387.57 404.855C1385.23 404.855 1385.1 406.287 1385.1 426.855C1385.1 452.37 1384.45 456.926 1381.06 456.926C1378.72 456.926 1378.59 459.53 1378.59 534.252C1378.59 576.691 1378.2 613.401 1377.81 615.614C1377.16 618.348 1376.25 619.649 1374.55 619.649C1372.21 619.649 1372.08 621.602 1372.08 666.383C1372.08 718.845 1371.69 725.094 1368.05 725.094C1365.7 725.094 1365.57 726.656 1365.57 751.13V777.165H1362.32C1359.19 777.165 1359.06 777.426 1359.06 786.929V796.692H1349.3C1339.8 796.692 1339.54 796.562 1339.54 793.438V790.183H1319.36H1299.18V793.438C1299.18 796.562 1298.92 796.692 1289.42 796.692C1279.91 796.692 1279.65 796.822 1279.65 799.947C1279.65 802.55 1279 803.201 1276.4 803.201C1273.8 803.201 1273.15 803.852 1273.15 806.455C1273.15 808.799 1272.49 809.71 1270.67 809.71C1268.72 809.71 1268.07 811.012 1267.29 816.219L1266.38 822.728H1260.65C1255.44 822.728 1254.92 822.988 1254.92 825.852C1254.92 828.846 1254.4 829.107 1248.15 829.497C1242.16 829.888 1241.25 830.278 1240.86 832.752C1240.47 835.615 1239.82 835.746 1229.01 835.746C1214.04 835.746 1209.36 836.657 1209.36 839.781C1209.36 841.864 1208.06 842.255 1199.33 842.515C1189.96 842.905 1189.18 843.166 1188.79 845.769C1188.4 848.373 1187.49 848.633 1179.03 849.024C1170.43 849.414 1169.65 849.675 1169.26 852.278C1168.87 854.752 1167.96 855.272 1163.93 855.272C1155.2 855.272 1150.78 856.704 1150.78 859.308C1150.78 861.13 1149.87 861.781 1146.87 861.781C1143.62 861.781 1142.97 862.302 1142.97 864.906C1142.97 867.249 1142.19 868.16 1140.1 868.551C1138.15 868.811 1136.98 869.983 1136.72 871.805L1136.33 874.799H1192.69C1223.68 874.799 1257.39 875.19 1267.68 875.71C1284.47 876.491 1286.16 876.752 1286.16 878.965C1286.16 881.178 1288.12 881.308 1325.22 881.308C1362.45 881.308 1364.27 881.178 1364.27 878.835C1364.27 875.971 1370.78 874.799 1387.18 874.799H1398.12V861.781V848.763H1401.37H1404.63V835.746C1404.63 823.899 1404.89 822.728 1407.1 822.728C1410.09 822.728 1411.13 817.521 1411.13 801.509C1411.13 790.313 1411.13 790.183 1414.39 790.183H1417.64V770.656V751.13H1420.9H1424.15V728.348V705.567H1427.41H1430.66V669.117V632.667H1433.92H1437.17V518.761V404.855H1433.92H1430.66V339.766V274.677H1427.41H1424.15V251.895V229.114H1430.66C1436.26 229.114 1437.17 229.505 1437.17 231.587C1437.17 233.54 1438.47 234.191 1443.68 234.972C1448.76 235.623 1450.19 236.404 1450.19 238.227C1450.19 240.049 1451.62 240.83 1456.7 241.481C1461.9 242.262 1463.21 242.913 1463.21 244.866C1463.21 246.688 1464.12 247.339 1466.46 247.339C1469.06 247.339 1469.71 247.99 1469.71 250.594C1469.71 253.588 1470.11 253.848 1476.22 253.848C1482.21 253.848 1482.73 254.108 1482.73 256.972C1482.73 259.706 1483.51 260.227 1489.24 261.008C1494.32 261.659 1495.75 262.44 1495.75 264.262C1495.75 266.085 1497.18 266.866 1502.26 267.517C1507.34 268.168 1508.77 268.949 1508.77 270.771C1508.77 272.594 1510.2 273.375 1515.28 274.026C1520.35 274.677 1521.79 275.458 1521.79 277.28C1521.79 279.103 1523.22 279.884 1528.3 280.535C1533.37 281.185 1534.8 281.967 1534.8 283.789C1534.8 285.612 1536.24 286.393 1541.31 287.043C1546.39 287.694 1547.82 288.475 1547.82 290.298C1547.82 292.12 1549.25 292.901 1554.33 293.552C1559.41 294.203 1560.84 294.984 1560.84 296.807C1560.84 298.629 1562.27 299.41 1567.35 300.061C1572.43 300.712 1573.86 301.493 1573.86 303.316C1573.86 305.138 1575.29 305.919 1580.24 306.57C1585.57 307.221 1586.75 308.002 1587.14 310.215C1587.53 312.689 1588.44 313.079 1594.43 313.47C1600.02 313.86 1601.19 314.251 1601.19 316.334C1601.19 318.286 1602.5 318.937 1606.92 319.588C1611.61 320.369 1612.91 321.15 1613.17 323.363C1613.56 325.706 1614.6 326.097 1620.46 326.488C1626.06 326.878 1627.23 327.269 1627.23 329.352C1627.23 331.434 1628.53 332.085 1633.74 332.736C1638.82 333.387 1640.25 334.038 1640.25 335.991C1640.25 337.813 1641.68 338.594 1646.76 339.245C1651.83 339.896 1653.27 340.677 1653.27 342.369C1653.27 344.192 1654.7 344.973 1659.78 345.624C1665.5 346.405 1666.28 346.926 1666.28 349.659C1666.28 352.523 1666.8 352.784 1672.79 352.784C1678.26 352.784 1679.3 353.174 1679.3 355.257C1679.3 357.861 1683.73 359.293 1692.45 359.293C1696.49 359.293 1697.4 359.813 1697.79 362.156C1698.18 364.76 1699.09 365.151 1705.08 365.541C1710.68 365.932 1711.85 366.322 1711.85 368.405C1711.85 370.488 1713.15 371.139 1718.36 371.79C1724.08 372.571 1724.86 372.961 1724.86 375.695C1724.86 378.559 1725.39 378.819 1731.37 378.819C1736.97 378.819 1737.88 379.21 1737.88 381.293C1737.88 383.245 1739.18 383.896 1744.39 384.677C1749.47 385.328 1750.9 386.109 1750.9 387.932C1750.9 390.405 1756.24 391.837 1765.61 391.837C1769.91 391.837 1770.43 392.228 1770.43 395.092C1770.43 398.086 1770.82 398.346 1776.94 398.346C1783.05 398.346 1783.44 398.606 1783.44 401.601C1783.44 404.725 1783.71 404.855 1793.21 404.855C1802.71 404.855 1802.97 404.985 1802.97 408.109C1802.97 411.104 1803.36 411.364 1809.48 411.364C1815.6 411.364 1815.99 411.624 1815.99 414.618C1815.99 417.612 1816.38 417.873 1822.5 417.873C1828.62 417.873 1829.01 418.133 1829.01 421.127C1829.01 424.252 1829.27 424.382 1838.77 424.382C1848.27 424.382 1848.53 424.512 1848.53 427.636C1848.53 430.63 1848.92 430.891 1855.04 430.891C1861.16 430.891 1861.55 431.151 1861.55 434.145C1861.55 437.269 1861.94 437.4 1868.71 437.4C1875.48 437.4 1875.87 437.53 1875.87 440.654C1875.87 443.778 1876.13 443.909 1884.98 443.909C1893.84 443.909 1894.1 444.039 1894.1 447.163C1894.1 450.157 1894.62 450.417 1899.82 450.417C1909.2 450.417 1913.62 451.719 1913.62 454.453C1913.62 456.536 1914.66 456.926 1920.13 456.926C1926.25 456.926 1926.64 457.187 1926.64 460.181C1926.64 463.305 1926.9 463.435 1936.4 463.435C1945.91 463.435 1946.17 463.565 1946.17 466.69C1946.17 469.684 1946.69 469.944 1951.9 469.944C1961.27 469.944 1965.69 471.246 1965.69 473.98C1965.69 476.063 1966.74 476.453 1972.85 476.453C1979.62 476.453 1980.01 476.583 1980.01 479.708C1980.01 482.962 1980.01 482.962 1992.38 482.962C2004.75 482.962 2004.75 482.962 2004.75 486.217C2004.75 489.211 2005.27 489.471 2010.48 489.471C2019.72 489.471 2024.27 490.773 2024.27 493.507C2024.27 495.589 2025.58 495.98 2034.43 496.24C2043.67 496.631 2044.45 496.891 2044.84 499.495C2045.23 502.098 2046.14 502.359 2054.61 502.749C2063.2 503.14 2063.98 503.4 2064.37 506.134C2064.76 508.868 2065.41 508.998 2074.52 508.998C2083.9 508.998 2084.16 509.128 2084.16 512.252C2084.16 515.376 2084.42 515.507 2092.49 515.507C2104.33 515.507 2108.89 516.678 2108.89 519.542C2108.89 521.625 2109.93 522.016 2116.05 522.016C2122.82 522.016 2123.21 522.146 2123.21 525.27C2123.21 528.264 2123.6 528.525 2129.72 528.525C2135.84 528.525 2136.23 528.264 2136.23 525.27C2136.23 522.666 2135.58 522.016 2132.97 522.016C2130.63 522.016 2129.72 521.365 2129.72 519.542C2129.72 517.72 2128.68 516.808 2126.2 516.548C2123.6 516.288 2122.43 515.376 2122.17 513.294C2121.78 510.82 2120.61 510.169 2115.27 509.518C2110.32 508.868 2108.89 508.086 2108.89 506.264C2108.89 504.572 2107.46 503.791 2103.03 503.01C2097.96 502.359 2097.17 501.708 2097.17 499.104C2097.17 496.24 2096.65 495.98 2090.67 495.98C2084.55 495.98 2084.16 495.72 2084.16 492.725C2084.16 490.122 2083.51 489.471 2081.03 489.471C2078.69 489.471 2077.78 488.69 2077.39 486.477C2077 484.003 2076.09 483.613 2070.88 483.222C2065.28 482.832 2064.63 482.572 2064.63 479.577C2064.63 476.974 2063.98 476.453 2060.72 476.453C2057.47 476.453 2056.82 475.932 2056.82 473.199C2056.82 470.205 2056.3 469.944 2050.96 469.944C2045.62 469.944 2045.1 469.684 2045.1 466.69C2045.1 463.956 2044.45 463.435 2041.2 463.435C2038.2 463.435 2037.29 462.915 2037.29 460.832C2037.29 458.749 2036.12 458.098 2030.78 457.447C2025.71 456.796 2024.27 456.145 2024.27 454.193C2024.27 452.37 2022.84 451.589 2017.77 450.938C2012.04 450.157 2011.26 449.767 2011.26 447.033C2011.26 444.169 2010.74 443.909 2005.4 443.909C2000.06 443.909 1999.54 443.648 1999.54 440.654C1999.54 437.66 1999.15 437.4 1993.03 437.4C1986.91 437.4 1986.52 437.139 1986.52 434.145C1986.52 431.151 1986.13 430.891 1980.01 430.891C1973.9 430.891 1973.51 430.63 1973.51 427.636C1973.51 424.642 1973.11 424.382 1967 424.382C1960.88 424.382 1960.49 424.121 1960.49 421.127C1960.49 418.133 1960.1 417.873 1953.98 417.873C1947.86 417.873 1947.47 417.612 1947.47 414.618C1947.47 411.885 1946.82 411.364 1943.56 411.364C1940.31 411.364 1939.66 410.843 1939.66 408.109C1939.66 405.115 1939.27 404.855 1933.15 404.855C1927.03 404.855 1926.64 404.595 1926.64 401.601C1926.64 398.606 1926.25 398.346 1920.13 398.346C1914.01 398.346 1913.62 398.086 1913.62 395.092C1913.62 392.098 1913.23 391.837 1907.11 391.837C1901 391.837 1900.61 391.577 1900.61 388.583C1900.61 385.719 1900.08 385.328 1895.53 385.328C1886.81 385.328 1882.38 383.896 1882.38 381.293C1882.38 379.47 1881.47 378.819 1878.48 378.819C1875.22 378.819 1874.57 378.299 1874.57 375.565C1874.57 372.701 1874.05 372.31 1869.49 372.31C1860.77 372.31 1856.34 370.878 1856.34 368.275C1856.34 366.192 1855.3 365.801 1849.18 365.801C1842.42 365.801 1842.03 365.671 1842.03 362.547C1842.03 359.553 1841.63 359.293 1835.52 359.293C1829.4 359.293 1829.01 359.032 1829.01 356.038C1829.01 353.044 1828.62 352.784 1822.5 352.784C1816.38 352.784 1815.99 352.523 1815.99 349.529C1815.99 346.535 1815.6 346.275 1809.48 346.275C1803.49 346.275 1802.97 346.014 1802.97 343.15C1802.97 340.156 1802.45 339.896 1796.2 339.505C1790.21 339.115 1789.3 338.724 1788.91 336.121C1788.52 333.908 1787.61 333.257 1784.36 333.257C1775.63 333.257 1770.43 331.695 1770.43 329.221C1770.43 327.659 1769.26 326.748 1766.91 326.488C1764.31 326.227 1763.14 325.316 1762.88 323.103C1762.49 320.89 1761.57 320.239 1758.32 320.239C1749.6 320.239 1744.39 318.677 1744.39 316.203C1744.39 314.641 1743.22 313.73 1740.88 313.47C1738.27 313.209 1737.1 312.298 1736.84 310.085C1736.45 307.742 1735.54 307.221 1731.5 307.221C1723.04 307.221 1718.36 305.789 1718.36 303.316C1718.36 301.493 1716.92 300.712 1711.85 300.061C1706.77 299.41 1705.34 298.629 1705.34 296.807C1705.34 295.115 1703.91 294.333 1698.83 293.683C1693.62 293.032 1692.32 292.251 1692.32 290.428C1692.32 288.475 1690.89 287.825 1685.16 287.043C1679.3 286.393 1678 285.742 1678 283.789C1678 281.836 1676.83 281.316 1671.88 280.925C1666.54 280.535 1665.63 280.144 1665.24 277.671C1664.85 275.197 1663.81 274.807 1658.73 274.416C1653.53 274.026 1652.62 273.635 1652.22 271.162C1651.83 268.688 1650.79 268.298 1645.72 267.907C1640.51 267.517 1639.6 267.126 1639.21 264.653C1638.82 262.179 1637.78 261.789 1632.7 261.398C1627.49 261.008 1626.58 260.617 1626.19 258.144C1625.8 255.67 1624.76 255.28 1619.68 254.889C1614.47 254.499 1613.56 254.108 1613.17 251.635C1612.78 249.162 1611.74 248.771 1606.66 248.38C1601.46 247.99 1600.54 247.599 1600.15 244.996C1599.76 242.653 1598.85 242.132 1594.82 242.132C1586.35 242.132 1581.67 240.7 1581.67 238.227C1581.67 236.404 1580.11 235.753 1574.51 234.972C1568.78 234.321 1567.35 233.67 1567.35 231.718C1567.35 229.895 1565.92 229.114 1560.84 228.463C1555.76 227.812 1554.33 227.031 1554.33 225.209C1554.33 223.386 1552.9 222.605 1547.82 221.954C1542.74 221.303 1541.31 220.522 1541.31 218.7C1541.31 216.877 1539.88 216.096 1534.8 215.445C1529.73 214.794 1528.3 214.013 1528.3 212.191C1528.3 209.717 1522.96 208.286 1513.72 208.286C1509.29 208.286 1508.77 207.895 1508.77 205.031C1508.77 202.427 1508.12 201.777 1505.51 201.777C1503.17 201.777 1502.26 201.126 1502.26 199.173C1502.26 197.09 1501.35 196.569 1498.09 196.569C1488.98 196.569 1484.16 195.138 1483.77 192.143C1483.38 189.8 1482.34 189.41 1476.61 189.019C1470.24 188.629 1469.71 188.368 1469.71 185.374C1469.71 182.51 1469.19 182.25 1463.21 182.25C1457.09 182.25 1456.7 181.99 1456.7 178.995C1456.7 176.001 1456.31 175.741 1450.19 175.741C1444.07 175.741 1443.68 175.481 1443.68 172.486C1443.68 169.492 1443.29 169.232 1437.17 169.232C1431.05 169.232 1430.66 168.972 1430.66 165.978C1430.66 162.983 1430.27 162.723 1424.15 162.723C1418.03 162.723 1417.64 162.463 1417.64 159.469C1417.64 156.474 1417.25 156.214 1411.13 156.214C1405.02 156.214 1404.63 155.954 1404.63 152.96C1404.63 149.966 1404.23 149.705 1398.12 149.705C1392 149.705 1391.61 149.445 1391.61 146.451C1391.61 143.717 1390.96 143.196 1387.7 143.196C1384.71 143.196 1383.8 142.545 1383.8 140.723C1383.8 138.119 1379.37 136.687 1370.65 136.687C1366.09 136.687 1365.57 136.297 1365.57 133.433C1365.57 130.439 1365.18 130.178 1359.19 130.178C1353.47 130.178 1352.68 129.788 1352.29 127.184C1351.9 124.711 1350.99 124.32 1345.78 123.93C1340.19 123.539 1339.54 123.279 1339.54 120.285C1339.54 117.421 1339.02 117.161 1333.16 117.161C1327.43 117.161 1326.65 116.77 1326.26 114.167C1325.87 111.693 1324.96 111.303 1319.1 110.912C1312.72 110.522 1312.2 110.261 1312.2 107.267C1312.2 104.403 1311.68 104.143 1305.69 104.143C1300.09 104.143 1299.18 103.752 1299.18 101.539C1299.18 99.4564 1298.01 98.8055 1292.67 98.1545C1287.6 97.5037 1286.16 96.8528 1286.16 94.9001C1286.16 93.0776 1284.73 92.2966 1279.65 91.6456C1274.71 90.9948 1273.15 90.2137 1273.15 88.5214C1273.15 86.048 1268.46 84.616 1260 84.616C1255.96 84.616 1255.05 84.0953 1254.66 81.6219C1254.27 79.1485 1253.36 78.758 1248.15 78.3674C1242.55 77.9769 1241.9 77.7166 1241.9 74.7225C1241.9 71.7283 1241.51 71.5981 1234.74 71.5981C1227.97 71.5981 1227.58 71.468 1227.58 68.3437C1227.58 65.3496 1227.19 65.0892 1221.07 65.0892C1214.96 65.0892 1214.56 64.8289 1214.56 61.8348C1214.56 58.7105 1214.3 58.5803 1205.45 58.5803C1196.6 58.5803 1196.34 58.4501 1196.34 55.3259C1196.34 52.3318 1195.95 52.0714 1189.83 52.0714C1183.71 52.0714 1183.32 51.811 1183.32 48.817C1183.32 45.8228 1182.93 45.5625 1176.81 45.5625C1170.69 45.5625 1170.3 45.3021 1170.3 42.308C1170.3 39.1837 1169.91 39.0536 1163.14 39.0536C1156.38 39.0536 1155.98 38.9234 1155.98 35.7991C1155.98 32.6748 1155.72 32.5446 1146.87 32.5446C1138.02 32.5446 1137.76 32.4145 1137.76 29.2902C1137.76 26.1659 1137.37 26.0357 1130.6 26.0357C1123.83 26.0357 1123.44 25.9055 1123.44 22.7812C1123.44 19.7872 1123.05 19.5268 1116.93 19.5268C1110.81 19.5268 1110.42 19.2664 1110.42 16.2723C1110.42 13.6688 1109.77 13.0179 1107.17 13.0179C1104.56 13.0179 1103.91 12.367 1103.91 9.76343C1103.91 6.89948 1103.39 6.50897 1099.1 6.50897C1089.46 6.50897 1084.39 5.07697 1084.39 2.47345C1084.39 0.260376 1083.35 0 1074.62 0C1065.12 0 1064.86 0.130188 1064.86 3.25452ZM842.645 626.419C843.166 636.703 843.556 651.283 843.556 658.963C843.556 672.111 843.687 673.023 846.16 673.023C848.633 673.023 848.763 673.934 848.763 685.259V697.626L843.296 698.407C840.172 698.798 825.722 699.058 811.012 698.798L784.325 698.407L783.935 656.62L783.674 614.833L788.491 613.922C791.225 613.531 798.515 613.141 804.893 613.141C815.308 613.141 816.219 612.88 816.219 610.537C816.219 608.064 817.13 607.933 828.976 607.933H841.864L842.645 626.419Z" fill="#BC510F"/>
<path d="M999.771 159.338C999.771 162.463 999.381 162.723 993.393 162.723H987.014L986.493 177.954C986.233 186.415 986.233 198.392 986.493 204.64C987.014 214.664 987.274 216.096 989.357 216.096C990.919 216.096 991.961 217.268 992.221 218.96C992.612 221.694 993.393 221.954 1002.77 222.345C1012.79 222.735 1012.79 222.735 1012.79 219.351C1012.79 216.747 1013.44 216.096 1016.04 216.096C1019.04 216.096 1019.3 215.706 1019.3 209.717C1019.3 203.989 1019.69 203.208 1022.29 202.818C1025.03 202.427 1025.16 201.907 1025.55 186.415L1025.94 170.534H1022.55C1019.82 170.534 1019.3 169.883 1019.3 166.628C1019.3 163.113 1018.91 162.723 1015.39 162.723C1012.4 162.723 1011.49 162.202 1011.49 160.119C1011.49 158.687 1010.71 157.516 1009.66 157.516C1008.75 157.516 1006.02 157.125 1003.81 156.735C1000.16 155.954 999.771 156.214 999.771 159.338Z" fill="#BC510F"/>
<path d="M1162.49 160.12C1162.49 162.593 1161.58 162.723 1141.14 162.723C1113.81 162.723 1112.24 162.984 1111.07 168.711C1110.68 171.185 1110.68 175.22 1111.2 177.694L1111.98 182.25H1133.98C1154.55 182.25 1155.98 182.12 1155.98 179.777C1155.98 177.694 1157.42 177.303 1169 176.392L1182.02 175.481V169.102C1182.02 163.114 1181.76 162.723 1178.77 162.723C1176.42 162.723 1175.51 162.072 1175.51 160.12C1175.51 156.344 1170.69 156.605 1169.91 160.38L1169.39 163.374L1169.13 160.38C1169 156.475 1162.49 156.214 1162.49 160.12Z" fill="#BC510F"/>
<path d="M865.427 241.741C862.953 242.132 861.782 243.043 861.782 244.735C861.782 246.428 860.48 247.209 856.054 247.86L850.456 248.771L849.545 257.493C848.503 268.818 848.503 293.552 849.675 312.038C850.326 324.925 850.716 326.748 852.799 326.748C854.492 326.748 855.273 328.31 855.924 333.257L856.835 339.766H862.432H868.03L868.941 333.257C869.722 328.05 870.373 326.748 872.326 326.748C874.149 326.748 874.799 325.837 874.799 323.493C874.799 320.89 875.45 320.239 878.054 320.239C880.657 320.239 881.308 319.588 881.308 317.115C881.308 314.641 882.089 313.86 884.953 313.47C887.427 313.209 888.598 312.298 888.859 310.085C889.249 308.002 890.16 307.221 892.504 307.221C894.977 307.221 895.628 306.57 895.628 304.097C895.628 301.754 896.409 300.842 898.622 300.452C901.095 300.061 901.486 299.15 901.877 293.162C902.137 287.694 902.658 286.392 904.61 286.392C906.823 286.392 907.084 284.57 907.995 269.469C908.516 260.227 908.516 250.333 907.995 247.469C907.344 243.173 906.563 242.262 903.178 241.611C898.882 240.83 871.285 240.83 865.427 241.741Z" fill="#BC510F"/>
<path d="M960.717 264.132C960.717 266.215 959.415 266.866 953.557 267.517C947.829 268.298 946.397 268.949 946.397 270.771C946.397 272.594 944.965 273.375 939.888 274.026C934.811 274.676 933.379 275.458 933.379 277.28C933.379 279.103 932.077 279.884 927.651 280.535C921.924 281.446 921.924 281.446 921.012 287.825C920.231 292.901 919.58 294.203 917.628 294.203C915.805 294.203 915.154 295.115 915.154 297.458C915.154 299.801 915.805 300.712 917.628 300.712C920.622 300.712 921.663 305.919 921.663 321.801C921.663 332.996 921.533 333.257 918.539 333.257C916.065 333.257 915.415 334.038 914.634 338.073C913.592 344.452 913.592 352.133 914.634 359.813C915.284 364.5 916.065 365.801 917.888 365.801C919.971 365.801 920.361 366.843 920.361 372.31C920.361 377.908 919.971 378.819 917.758 378.819C915.805 378.819 915.154 379.73 915.154 382.074C915.154 384.677 914.503 385.328 912.03 385.328C909.166 385.328 909.036 385.979 908.255 395.092C907.734 400.429 907.734 409.281 908.255 414.618C908.906 422.95 909.426 424.382 911.379 424.382C913.202 424.382 913.852 425.293 913.852 427.636C913.852 430.76 914.243 430.891 921.012 430.891C927.782 430.891 928.172 430.76 928.172 427.636C928.172 424.642 928.693 424.382 933.9 424.382H939.628L940.539 417.873C941.32 412.145 941.841 411.364 944.575 411.364C947.048 411.364 947.699 410.713 947.699 408.109V404.855H973.735H999.77V401.6C999.77 398.997 999.119 398.346 996.516 398.346C993.391 398.346 993.261 398.086 993.261 388.583C993.261 379.08 993.391 378.819 996.516 378.819C999.64 378.819 999.77 378.559 999.77 369.056C999.77 359.553 999.64 359.292 996.646 359.292C993.912 359.292 993.391 358.511 992.61 352.784C991.829 347.576 991.178 346.275 989.226 346.275C987.403 346.275 986.752 345.363 986.752 342.369C986.752 339.375 987.273 338.464 989.356 338.464C991.048 338.464 991.96 337.553 991.96 335.86C991.96 333.517 992.871 333.257 999.119 333.257C1005.89 333.257 1006.28 333.127 1006.28 330.002C1006.28 327.659 1006.93 326.748 1008.88 326.748C1011.1 326.748 1011.49 325.837 1011.49 320.239C1011.49 314.641 1011.1 313.73 1008.88 313.73C1006.93 313.73 1006.28 312.819 1006.28 310.476C1006.28 307.872 1005.63 307.221 1003.15 307.221C1000.68 307.221 999.9 306.44 999.51 303.576C999.25 301.103 998.338 299.931 996.255 299.671C994.042 299.28 993.261 298.109 992.61 292.771C991.96 287.694 991.178 286.393 989.226 286.393C987.143 286.393 986.752 285.091 986.492 276.89C986.102 268.298 985.841 267.517 983.238 267.126C981.285 266.866 980.243 265.824 980.243 264.132C980.243 261.919 979.202 261.659 970.48 261.659C961.758 261.659 960.717 261.919 960.717 264.132Z" fill="#BC510F"/>
<path d="M1051.84 356.039V404.855H1058.35C1064.47 404.855 1064.86 404.595 1064.86 401.601C1064.86 398.607 1065.25 398.347 1071.37 398.347C1077.49 398.347 1077.88 398.086 1077.88 395.092C1077.88 392.489 1078.53 391.838 1081.13 391.838C1083.73 391.838 1084.39 391.187 1084.39 388.583C1084.39 385.589 1084.78 385.329 1090.89 385.329C1097.01 385.329 1097.4 385.068 1097.4 382.074C1097.4 379.471 1098.05 378.82 1100.66 378.82C1103.26 378.82 1103.91 378.169 1103.91 375.565C1103.91 372.571 1104.3 372.311 1110.42 372.311C1116.54 372.311 1116.93 372.051 1116.93 369.056C1116.93 366.453 1117.58 365.802 1120.18 365.802C1123.31 365.802 1123.44 365.542 1123.44 356.039C1123.44 346.536 1123.31 346.275 1120.18 346.275C1117.58 346.275 1116.93 345.624 1116.93 343.021C1116.93 340.027 1116.54 339.766 1110.42 339.766C1104.43 339.766 1103.91 339.506 1103.91 336.642C1103.91 333.908 1103.13 333.388 1097.4 332.606C1092.2 331.825 1090.89 331.174 1090.89 329.222C1090.89 327.399 1089.98 326.748 1087.64 326.748C1085.04 326.748 1084.39 326.098 1084.39 323.494C1084.39 320.89 1083.73 320.239 1081.13 320.239C1078.53 320.239 1077.88 319.589 1077.88 317.115C1077.88 314.381 1077.1 313.861 1071.37 313.08C1066.16 312.299 1064.86 311.648 1064.86 309.695C1064.86 307.612 1063.95 307.222 1058.35 307.222H1051.84V356.039Z" fill="#BC510F"/>
<path d="M1299.18 355.257C1299.18 358.121 1294.62 359.293 1282.78 359.293C1275.36 359.293 1274.58 359.553 1274.19 362.157C1273.8 364.76 1272.89 365.151 1267.03 365.541C1260.65 365.932 1260.13 366.192 1260.13 369.186C1260.13 372.05 1259.61 372.31 1253.62 372.31C1248.02 372.31 1247.11 372.701 1247.11 374.914C1247.11 376.997 1245.94 377.648 1240.6 378.299C1234.87 379.08 1234.09 379.47 1234.09 382.204C1234.09 385.068 1233.57 385.328 1227.58 385.328C1221.46 385.328 1221.07 385.589 1221.07 388.583C1221.07 391.577 1220.68 391.837 1214.57 391.837C1208.45 391.837 1208.06 392.098 1208.06 395.092C1208.06 398.086 1207.67 398.346 1201.55 398.346C1195.43 398.346 1195.04 398.607 1195.04 401.601C1195.04 404.595 1194.52 404.855 1189.18 404.855H1183.32V411.364V417.873H1189.18C1194.52 417.873 1195.04 418.133 1195.04 421.127V424.382H1214.57H1234.09V421.127V417.873H1253.62H1273.15V414.618V411.364H1292.67H1312.2V408.11V404.855H1325.87H1339.54V401.601C1339.54 398.607 1339.93 398.346 1346.05 398.346C1352.42 398.346 1352.55 398.216 1352.55 394.441C1352.55 391.447 1353.07 390.535 1355.16 390.535C1356.59 390.535 1357.76 389.754 1357.76 388.713C1357.76 387.802 1358.15 385.068 1358.54 382.855C1359.32 379.21 1359.06 378.819 1355.94 378.819C1353.21 378.819 1352.55 378.168 1352.55 375.565C1352.55 372.961 1351.9 372.31 1349.3 372.31C1346.7 372.31 1346.05 371.66 1346.05 369.186C1346.05 366.192 1345.52 365.932 1339.28 365.541C1333.29 365.151 1332.38 364.76 1331.99 362.157C1331.6 359.553 1330.94 359.293 1322.48 359.293C1313.76 359.293 1313.5 359.162 1313.5 356.038C1313.5 352.914 1313.11 352.784 1306.34 352.784C1300.22 352.784 1299.18 353.174 1299.18 355.257Z" fill="#BC510F"/>
<path d="M1136.46 460.051C1136.46 463.045 1135.81 463.305 1130.34 463.696L1124.09 464.086L1123.7 470.205C1123.31 475.802 1123.05 476.453 1120.06 476.453C1117.06 476.453 1116.93 476.713 1116.93 486.216C1116.93 495.72 1117.06 495.98 1120.06 495.98C1122.53 495.98 1123.31 496.761 1123.7 499.495C1123.96 502.098 1124.87 503.27 1127.09 503.53C1128.91 503.791 1129.95 504.832 1129.95 506.524C1129.95 508.347 1130.86 508.998 1133.2 508.998C1135.81 508.998 1136.46 509.649 1136.46 512.252C1136.46 514.856 1137.11 515.507 1139.71 515.507C1142.32 515.507 1142.97 516.158 1142.97 518.631C1142.97 521.365 1143.75 521.885 1149.35 522.666C1154.68 523.317 1155.85 524.098 1156.25 526.311C1156.51 528.134 1157.68 529.306 1159.63 529.566C1161.45 529.826 1162.49 530.868 1162.49 532.56C1162.49 534.383 1163.41 535.033 1165.75 535.033C1168.35 535.033 1169 535.684 1169 538.158C1169 540.631 1169.78 541.412 1172.65 541.803C1175.12 542.063 1176.29 542.974 1176.55 544.927C1176.81 547.14 1178.12 547.921 1182.8 548.702C1187.1 549.353 1188.53 550.134 1188.53 551.826C1188.53 553.649 1189.96 554.43 1195.04 555.081C1200.25 555.732 1201.55 556.513 1201.55 558.335C1201.55 560.288 1202.98 560.939 1208.71 561.72C1214.57 562.371 1215.87 563.022 1215.87 565.105C1215.87 567.057 1216.78 567.578 1220.16 567.578C1228.75 567.578 1234.09 569.14 1234.09 571.483C1234.09 573.176 1235.65 573.957 1240.6 574.608C1245.68 575.259 1247.11 576.04 1247.11 577.862C1247.11 579.815 1248.54 580.466 1253.62 581.117L1260.13 582.028V600.774C1260.13 618.348 1260 619.649 1257.65 619.649C1254.53 619.649 1253.62 626.158 1253.62 649.07C1253.62 665.602 1253.49 666.514 1251.02 666.514C1249.06 666.514 1248.41 667.425 1248.41 669.768C1248.41 672.111 1249.06 673.023 1251.02 673.023C1253.36 673.023 1253.62 673.934 1253.62 683.307C1253.62 699.058 1254.79 705.567 1257.65 705.567C1260 705.567 1260.13 706.869 1260.13 723.402C1260.13 745.532 1260.91 751.13 1264.03 751.13C1265.86 751.13 1266.64 752.562 1267.29 757.639L1268.2 764.147H1294.1H1320.01V760.893C1320.01 758.55 1320.66 757.639 1322.61 757.639C1324.83 757.639 1325.22 756.727 1325.22 751.13C1325.22 745.532 1324.83 744.621 1322.61 744.621C1320.14 744.621 1320.01 743.709 1320.01 712.987C1320.01 695.674 1319.62 670.549 1319.1 657.011C1318.32 634.49 1318.06 632.667 1315.84 632.667C1313.63 632.667 1313.5 630.584 1313.5 589.318C1313.5 540.501 1313.11 536.596 1309.08 536.075C1307.38 535.814 1306.21 534.643 1305.95 532.951C1305.43 529.566 1301.39 528.524 1289.29 528.524C1281.87 528.524 1281.09 528.264 1280.7 525.53C1280.31 523.057 1279.39 522.666 1274.19 522.276C1269.11 521.885 1268.07 521.495 1267.68 519.021C1267.42 516.939 1266.25 516.027 1263.77 515.767C1261.17 515.507 1260.13 514.595 1260.13 512.903C1260.13 510.82 1258.83 510.169 1253.62 509.518C1247.89 508.737 1247.11 508.347 1247.11 505.613C1247.11 502.749 1246.59 502.489 1241.38 502.489C1236.31 502.489 1235.52 502.098 1235.13 499.495C1234.87 497.412 1233.7 496.501 1231.23 496.24C1228.36 495.85 1227.58 495.069 1227.58 492.595C1227.58 489.731 1227.06 489.471 1221.86 489.471C1216.78 489.471 1216 489.08 1215.61 486.477C1215.35 484.394 1214.17 483.483 1211.7 483.222C1208.84 482.832 1208.06 482.051 1208.06 479.577C1208.06 476.713 1207.54 476.453 1202.2 476.453C1196.86 476.453 1196.34 476.193 1196.34 473.199C1196.34 470.465 1195.69 469.944 1192.44 469.944C1189.18 469.944 1188.53 469.423 1188.53 466.69C1188.53 463.696 1188.14 463.435 1182.02 463.435C1175.9 463.435 1175.51 463.175 1175.51 460.181V456.926H1155.99H1136.46V460.051Z" fill="#BC510F"/>
<path d="M1170.3 655.969C1170.3 658.052 1169 658.703 1163.01 659.484L1155.72 660.265L1156.25 684.739C1156.51 698.277 1157.03 709.733 1157.55 710.123C1158.07 710.644 1162.62 711.425 1167.7 711.816C1175.38 712.336 1176.81 712.857 1176.81 714.81C1176.81 716.502 1178.25 717.283 1182.67 718.064C1188.4 718.845 1188.53 718.976 1188.53 723.662C1188.53 733.035 1189.96 738.112 1192.57 738.112C1194.78 738.112 1195.04 739.283 1195.04 751.13C1195.04 762.976 1194.78 764.148 1192.7 764.148C1190.48 764.148 1190.09 765.71 1189.44 778.727C1188.4 796.822 1189.18 803.201 1192.57 803.201C1194.39 803.201 1195.04 804.112 1195.04 806.456C1195.04 809.58 1195.3 809.71 1204.8 809.71C1214.3 809.71 1214.57 809.58 1214.57 806.456C1214.57 803.722 1215.22 803.201 1218.47 803.201C1221.73 803.201 1222.38 802.68 1222.38 799.947C1222.38 797.343 1223.03 796.692 1225.63 796.692C1228.23 796.692 1228.88 796.041 1228.88 793.438C1228.88 791.094 1229.54 790.183 1231.49 790.183C1233.44 790.183 1234.09 789.272 1234.09 786.929C1234.09 784.195 1234.74 783.674 1238 783.674C1241.25 783.674 1241.9 783.154 1241.9 780.42C1241.9 778.077 1242.55 777.165 1244.38 777.165C1247.63 777.165 1248.41 771.958 1248.41 748.396C1248.41 723.792 1247.5 717.283 1244.38 717.283C1242.29 717.283 1241.9 716.242 1241.9 711.686C1241.9 708.561 1241.51 701.532 1241.12 696.064C1240.34 687.342 1239.95 686.171 1237.48 685.78C1235.78 685.52 1234.61 684.218 1234.35 682.395C1234.09 680.573 1233.05 679.532 1231.49 679.532C1229.67 679.532 1228.88 678.1 1228.23 673.153C1227.58 667.815 1226.8 666.644 1224.59 666.253C1222.77 665.993 1221.59 664.821 1221.33 662.999C1221.07 661.176 1219.9 660.005 1218.08 659.744C1216.26 659.484 1215.09 658.312 1214.83 656.36C1214.44 653.496 1214.17 653.496 1192.3 653.496C1171.48 653.496 1170.3 653.626 1170.3 655.969Z" fill="#BC510F"/>
<path d="M1108.21 672.632C1104.69 673.023 1103.91 673.804 1103.91 676.407C1103.91 678.881 1103.26 679.532 1100.66 679.532C1097.66 679.532 1097.4 680.052 1097.4 685.39C1097.4 690.727 1097.14 691.248 1094.15 691.248C1091.03 691.248 1090.9 691.638 1090.9 698.407C1090.9 705.177 1090.76 705.567 1087.64 705.567C1085.04 705.567 1084.39 706.218 1084.39 708.822C1084.39 711.425 1083.74 712.076 1081.13 712.076C1078.79 712.076 1077.88 712.727 1077.88 714.68C1077.88 716.632 1076.97 717.283 1074.62 717.283C1072.28 717.283 1071.37 716.632 1071.37 714.68C1071.37 712.727 1070.46 712.076 1068.11 712.076C1065.51 712.076 1064.86 711.425 1064.86 708.822C1064.86 706.218 1064.21 705.567 1061.61 705.567C1059 705.567 1058.35 704.916 1058.35 702.313C1058.35 699.188 1057.96 699.058 1051.19 699.058C1044.94 699.058 1044.03 699.319 1044.03 701.662C1044.03 703.354 1043.12 704.265 1041.43 704.265C1038.95 704.265 1038.82 705.177 1038.82 724.443V744.621H1035.57H1032.31V757.639V770.656H1029.06C1025.94 770.656 1025.81 770.917 1025.81 780.42C1025.81 789.923 1025.68 790.183 1022.55 790.183C1019.56 790.183 1019.3 790.574 1019.3 796.432C1019.3 799.947 1018.91 807.237 1018.52 812.704C1017.73 821.296 1017.21 822.728 1015.26 822.728C1013.44 822.728 1012.79 823.639 1012.79 825.982C1012.79 828.326 1013.44 829.237 1015.26 829.237C1018.13 829.237 1019.3 834.444 1019.3 847.071V855.272H1028.28H1037.26L1038.04 851.237C1038.43 849.024 1038.82 844.858 1038.82 842.124C1038.82 838.089 1039.34 837.178 1041.82 836.787C1044.42 836.397 1044.68 835.616 1045.07 826.243C1045.46 816.609 1045.59 816.219 1048.59 816.219C1051.58 816.219 1051.84 815.698 1051.84 809.71C1051.84 803.592 1052.1 803.201 1055.1 803.201C1057.7 803.201 1058.35 802.55 1058.35 799.947C1058.35 797.343 1059 796.692 1061.61 796.692H1064.86V777.165V757.639H1068.11C1070.72 757.639 1071.37 756.988 1071.37 754.384C1071.37 751.26 1071.63 751.13 1081.13 751.13C1090.63 751.13 1090.9 751.26 1090.9 754.384C1090.9 756.988 1091.55 757.639 1094.15 757.639H1097.4V793.438V829.237H1094.15C1091.55 829.237 1090.9 829.888 1090.9 832.491C1090.9 835.095 1091.55 835.746 1094.15 835.746C1097.14 835.746 1097.4 836.136 1097.4 842.255V848.764H1107.17C1116.67 848.764 1116.93 848.633 1116.93 845.509V842.255H1129.95H1142.97V839C1142.97 836.397 1143.62 835.746 1146.22 835.746C1148.82 835.746 1149.48 835.095 1149.48 832.491C1149.48 829.888 1150.13 829.237 1152.73 829.237C1155.33 829.237 1155.98 828.586 1155.98 825.982C1155.98 823.379 1156.64 822.728 1159.24 822.728H1162.49V790.183C1162.49 759.331 1162.36 757.639 1160.02 757.639C1156.9 757.639 1155.98 752.431 1155.98 733.165C1155.98 719.757 1155.72 718.585 1153.51 718.585C1150.65 718.585 1149.48 713.378 1149.48 700.62C1149.48 692.94 1149.35 692.549 1146.22 692.549C1143.62 692.549 1142.97 691.898 1142.97 689.295C1142.97 686.691 1142.32 686.04 1139.71 686.04C1137.11 686.04 1136.46 685.39 1136.46 682.916C1136.46 680.182 1135.68 679.662 1129.95 678.881C1124.74 678.1 1123.44 677.449 1123.44 675.496C1123.44 674.194 1122.66 673.023 1121.62 673.023C1120.71 673.023 1118.23 672.762 1116.15 672.502C1114.07 672.242 1110.42 672.242 1108.21 672.632Z" fill="#BC510F"/>
</g>
<defs>
<filter id="filter0_d_102_6" x="2326.23" y="163.966" width="7471.56" height="676.172" filterUnits="userSpaceOnUse" color-interpolation-filters="sRGB">
<feFlood flood-opacity="0" result="BackgroundImageFix"/>
<feColorMatrix in="SourceAlpha" type="matrix" values="0 0 0 0 0 0 0 0 0 0 0 0 0 0 0 0 0 0 127 0" result="hardAlpha"/>
<feOffset dx="24" dy="41"/>
<feGaussianBlur stdDeviation="5"/>
<feComposite in2="hardAlpha" operator="out"/>
<feColorMatrix type="matrix" values="0 0 0 0 0 0 0 0 0 0 0 0 0 0 0 0 0 0 0.39 0"/>
<feBlend mode="normal" in2="BackgroundImageFix" result="effect1_dropShadow_102_6"/>
<feBlend mode="normal" in="SourceGraphic" in2="effect1_dropShadow_102_6" result="shape"/>
</filter>
<filter id="filter1_d_102_6" x="0" y="0" width="2186.23" height="933" filterUnits="userSpaceOnUse" color-interpolation-filters="sRGB">
<feFlood flood-opacity="0" result="BackgroundImageFix"/>
<feColorMatrix in="SourceAlpha" type="matrix" values="0 0 0 0 0 0 0 0 0 0 0 0 0 0 0 0 0 0 127 0" result="hardAlpha"/>
<feOffset dx="40" dy="41"/>
<feGaussianBlur stdDeviation="5"/>
<feComposite in2="hardAlpha" operator="out"/>
<feColorMatrix type="matrix" values="0 0 0 0 0 0 0 0 0 0 0 0 0 0 0 0 0 0 0.25 0"/>
<feBlend mode="normal" in2="BackgroundImageFix" result="effect1_dropShadow_102_6"/>
<feBlend mode="normal" in="SourceGraphic" in2="effect1_dropShadow_102_6" result="shape"/>
</filter>
</defs>
</svg>
