<svg width="9519" height="933" viewBox="0 0 9519 933" fill="none" xmlns="http://www.w3.org/2000/svg">
<g filter="url(#filter0_d_22_142)">
<rect x="721.188" y="197.871" width="527.223" height="673.023" fill="#F1900C"/>
<rect x="878.704" y="156.214" width="527.223" height="673.023" fill="#F1900C"/>
<rect x="762.846" y="136.687" width="527.223" height="673.023" fill="#F1900C"/>
<rect x="930.776" y="68.9946" width="251.244" height="673.023" fill="#F1900C"/>
<path d="M1064.86 3.25452V6.50897H1051.84H1038.82V9.76343C1038.82 12.8877 1038.43 13.0179 1031.66 13.0179C1025.42 13.0179 1024.5 13.2783 1024.5 15.6215C1024.5 17.7043 1023.33 18.3552 1018 19.0061C1012.27 19.7872 1011.49 20.1777 1011.49 22.9114C1011.49 25.9055 1011.1 26.0357 1002.37 26.0357C993.522 26.0357 993.262 26.1659 993.262 29.2902C993.262 32.2843 992.871 32.5446 986.753 32.5446C980.634 32.5446 980.244 32.805 980.244 35.7991C980.244 38.7932 979.853 39.0536 973.735 39.0536C967.616 39.0536 967.226 39.3139 967.226 42.308C967.226 45.4323 966.966 45.5625 957.463 45.5625C947.959 45.5625 947.699 45.6927 947.699 48.817C947.699 51.811 947.309 52.0714 941.19 52.0714C935.072 52.0714 934.681 52.3318 934.681 55.3259C934.681 58.3199 934.291 58.5803 928.172 58.5803C922.054 58.5803 921.663 58.8407 921.663 61.8348C921.663 64.8289 921.273 65.0892 915.155 65.0892C909.036 65.0892 908.646 65.3496 908.646 68.3437C908.646 71.3378 908.255 71.5981 902.137 71.5981C896.018 71.5981 895.628 71.8585 895.628 74.8527C895.628 77.8467 895.237 78.1071 889.119 78.1071C883 78.1071 882.61 78.3674 882.61 81.3616C882.61 84.4858 882.219 84.616 875.45 84.616C868.681 84.616 868.29 84.7462 868.29 87.8705C868.29 90.8646 867.9 91.1249 861.781 91.1249C855.663 91.1249 855.272 91.3853 855.272 94.3794C855.272 97.3735 854.882 97.6339 848.763 97.6339C842.645 97.6339 842.255 97.8942 842.255 100.888C842.255 103.882 841.864 104.143 835.746 104.143C829.627 104.143 829.237 104.403 829.237 107.397C829.237 110.261 828.716 110.652 824.16 110.652C815.698 110.652 811.012 112.084 811.012 114.557C811.012 116.249 809.45 117.03 804.503 117.681C799.296 118.332 797.994 119.113 797.994 120.936C797.994 122.888 796.562 123.539 790.834 124.32C785.106 124.971 783.674 125.622 783.674 127.575C783.674 129.397 782.242 130.178 777.165 130.829C772.088 131.48 770.656 132.261 770.656 134.084C770.656 135.906 769.224 136.687 764.148 137.338C759.071 137.989 757.639 138.77 757.639 140.593C757.639 142.415 756.207 143.196 751.13 143.847C746.053 144.498 744.621 145.279 744.621 147.102C744.621 148.924 743.189 149.705 738.112 150.356C733.035 151.007 731.603 151.788 731.603 153.611C731.603 155.433 730.171 156.214 725.094 156.865C720.017 157.516 718.585 158.297 718.585 160.12C718.585 161.942 717.153 162.723 712.076 163.374C706.869 164.155 705.567 164.806 705.567 166.759C705.567 168.581 704.656 169.232 702.313 169.232C699.709 169.232 699.058 169.883 699.058 172.486C699.058 175.35 698.538 175.741 694.242 175.741C684.869 175.741 679.531 177.173 679.531 179.646C679.531 181.469 678.1 182.25 673.023 182.901C667.946 183.552 666.514 184.333 666.514 186.155C666.514 187.978 665.082 188.759 660.005 189.41C654.928 190.061 653.496 190.842 653.496 192.664C653.496 194.487 652.064 195.268 646.987 195.919C641.91 196.569 640.478 197.351 640.478 199.173C640.478 200.996 639.046 201.777 633.969 202.427C628.892 203.078 627.46 203.859 627.46 205.682C627.46 207.504 626.028 208.286 620.951 208.936C615.874 209.587 614.442 210.368 614.442 212.191C614.442 214.013 613.01 214.794 607.933 215.445C602.856 216.096 601.424 216.877 601.424 218.7C601.424 220.522 599.992 221.303 594.916 221.954C589.839 222.605 588.407 223.386 588.407 225.209C588.407 227.682 583.069 229.114 573.827 229.114C569.921 229.114 569.01 229.635 568.62 231.978C568.229 234.582 567.318 234.972 562.111 235.363C557.034 235.753 555.862 236.274 555.862 238.227C555.862 240.179 554.56 240.83 548.702 241.481C542.974 242.262 541.542 242.913 541.542 244.735C541.542 246.558 540.11 247.339 535.033 247.99C529.956 248.641 528.525 249.422 528.525 251.244C528.525 253.588 523.187 255.15 514.595 255.15C511.341 255.15 510.43 255.801 510.039 258.014C509.649 260.617 508.737 261.008 503.53 261.398C498.453 261.789 497.282 262.31 497.282 264.262C497.282 266.215 495.98 266.866 490.122 267.517C484.394 268.298 482.962 268.949 482.962 270.901C482.962 272.724 481.66 273.505 476.453 274.156C471.376 274.807 469.944 275.458 469.944 277.41C469.944 279.233 468.512 280.014 463.435 280.665C458.358 281.316 456.926 281.967 456.926 283.919C456.926 285.742 455.494 286.523 450.417 287.174C445.471 287.825 443.909 288.606 443.909 290.298C443.909 292.641 438.571 294.203 429.979 294.203C426.725 294.203 425.814 294.854 425.423 297.067C425.033 299.671 424.121 300.061 418.914 300.452C413.837 300.842 412.796 301.233 412.405 303.706C412.145 305.789 410.973 306.7 408.5 306.961C406.027 307.221 404.855 308.132 404.855 309.825C404.855 311.647 403.423 312.428 398.346 313.079C393.139 313.73 391.837 314.511 391.837 316.464C391.837 318.417 390.535 319.067 385.328 319.718C379.6 320.499 378.819 320.89 378.819 323.624C378.819 326.488 378.299 326.748 372.31 326.748C366.192 326.748 365.801 327.008 365.801 330.002C365.801 332.996 365.411 333.257 359.293 333.257C353.174 333.257 352.784 333.517 352.784 336.511C352.784 339.115 352.133 339.766 349.529 339.766C347.186 339.766 346.275 340.417 346.275 342.239C346.275 344.843 341.198 346.275 331.695 346.275C327.269 346.275 326.748 346.665 326.748 349.529C326.748 352.523 326.357 352.784 320.239 352.784C314.121 352.784 313.73 353.044 313.73 356.038C313.73 359.162 313.47 359.293 303.967 359.293C294.464 359.293 294.203 359.423 294.203 362.547C294.203 365.541 293.813 365.801 287.825 365.801C282.097 365.801 281.316 366.192 280.925 368.665C280.535 371.529 279.884 371.659 267.907 372.05C255.28 372.441 255.15 372.441 255.15 375.565C255.15 378.689 254.889 378.819 245.386 378.819C235.883 378.819 235.623 378.949 235.623 382.074C235.623 385.068 235.232 385.328 229.244 385.328C223.516 385.328 222.735 385.719 222.345 388.192C221.954 390.796 221.043 391.186 215.836 391.577C210.238 391.967 209.587 392.228 209.587 395.222C209.587 398.216 209.197 398.346 202.427 398.346C195.658 398.346 195.268 398.476 195.268 401.601C195.268 404.595 194.877 404.855 188.759 404.855C182.64 404.855 182.25 405.115 182.25 408.109C182.25 411.104 181.729 411.364 176.392 411.364C171.054 411.364 170.534 411.624 170.534 414.618C170.534 417.352 169.883 417.873 166.628 417.873C163.374 417.873 162.723 418.394 162.723 421.127C162.723 424.121 162.333 424.382 156.214 424.382C150.096 424.382 149.705 424.642 149.705 427.636C149.705 430.63 149.185 430.891 143.847 430.891C138.51 430.891 137.989 431.151 137.989 434.145C137.989 436.879 137.338 437.4 134.084 437.4C130.829 437.4 130.178 437.92 130.178 440.654C130.178 443.258 129.528 443.909 126.924 443.909C124.32 443.909 123.67 444.559 123.67 447.033C123.67 450.027 123.019 450.287 117.421 450.678C112.344 451.068 111.303 451.459 110.912 453.802C110.652 456.015 109.35 456.796 104.663 457.577C100.107 458.228 98.9356 458.879 98.9356 460.962C98.9356 462.784 98.0244 463.435 95.0303 463.435C91.7758 463.435 91.1249 463.956 91.1249 466.69C91.1249 469.684 90.6042 469.944 85.2669 469.944C79.9296 469.944 79.4089 470.205 79.4089 473.069C79.4089 475.802 78.6278 476.193 72.8999 476.974C67.6928 477.625 66.391 478.276 66.391 480.358C66.391 482.441 65.2194 482.832 59.4916 483.222C53.6335 483.613 52.7223 484.003 52.3317 486.477C51.9412 489.341 51.2903 489.471 42.1778 489.471C32.805 489.471 32.5446 489.601 32.5446 492.725C32.5446 495.589 32.0239 495.98 27.728 495.98C18.0948 495.98 13.0178 497.412 13.0178 500.015C13.0178 501.838 12.1066 502.489 9.76338 502.489C7.15981 502.489 6.50892 503.14 6.50892 505.743C6.50892 508.347 5.85803 508.998 3.25446 508.998C0.260357 508.998 0 509.388 0 515.376V521.625L6.11839 522.536C9.50303 522.927 21.2191 522.927 32.1541 522.536C51.9412 521.625 52.0714 521.625 52.0714 518.501C52.0714 515.767 52.5921 515.507 58.5803 515.507C64.6987 515.507 65.0892 515.246 65.0892 512.252V508.998H81.2314C97.1131 508.998 97.5037 508.868 97.8942 506.004C98.2847 503.27 98.9356 503.14 111.042 502.749C123.539 502.359 123.67 502.359 123.67 499.234C123.67 496.24 124.19 495.98 130.178 495.98C136.297 495.98 136.687 495.72 136.687 492.725C136.687 489.731 137.078 489.471 143.196 489.471C149.315 489.471 149.705 489.211 149.705 486.217C149.705 483.222 150.096 482.962 156.214 482.962C162.333 482.962 162.723 482.702 162.723 479.708C162.723 476.714 163.114 476.453 169.232 476.453C175.35 476.453 175.741 476.193 175.741 473.199C175.741 470.465 176.392 469.944 179.646 469.944C182.64 469.944 183.552 469.293 183.552 467.471C183.552 464.867 187.978 463.435 196.7 463.435C201.256 463.435 201.777 463.045 201.777 460.181C201.777 457.057 202.167 456.926 208.936 456.926C215.706 456.926 216.096 456.796 216.096 453.672C216.096 450.678 216.487 450.417 222.605 450.417C228.724 450.417 229.114 450.157 229.114 447.163C229.114 444.039 229.374 443.909 238.877 443.909C248.38 443.909 248.641 443.778 248.641 440.654C248.641 437.53 248.901 437.4 258.404 437.4C267.907 437.4 268.168 437.269 268.168 434.145C268.168 431.021 268.428 430.891 277.931 430.891C287.434 430.891 287.694 430.76 287.694 427.636C287.694 424.512 287.955 424.382 297.458 424.382C306.961 424.382 307.221 424.252 307.221 421.127C307.221 418.133 307.612 417.873 313.73 417.873C319.848 417.873 320.239 417.612 320.239 414.618C320.239 411.494 320.499 411.364 330.002 411.364C339.505 411.364 339.766 411.234 339.766 408.109C339.766 404.985 340.026 404.855 349.529 404.855C359.032 404.855 359.293 404.725 359.293 401.601C359.293 398.606 359.683 398.346 365.801 398.346C371.92 398.346 372.31 398.086 372.31 395.092C372.31 392.098 372.701 391.837 378.819 391.837C384.938 391.837 385.328 391.577 385.328 388.583C385.328 385.719 385.849 385.328 390.275 385.328C399.778 385.328 404.855 383.896 404.855 381.293C404.855 379.08 405.896 378.819 414.618 378.819C424.121 378.819 424.382 378.689 424.382 375.565C424.382 372.441 424.642 372.31 433.364 372.31C445.861 372.31 450.417 371.269 450.417 368.275C450.417 366.062 451.459 365.801 459.4 365.801C471.897 365.801 476.453 364.76 476.453 361.766C476.453 359.683 477.495 359.293 482.962 359.293C489.08 359.293 489.471 359.032 489.471 356.038C489.471 353.044 489.992 352.784 495.199 352.784C504.311 352.784 508.998 351.482 508.998 348.878C508.998 347.186 510.56 346.405 515.507 345.754C520.584 345.103 522.016 344.322 522.016 342.5C522.016 340.547 523.448 339.896 528.525 339.245C533.602 338.594 535.033 337.813 535.033 335.991C535.033 334.038 536.465 333.387 541.542 332.736C546.619 332.085 548.051 331.304 548.051 329.482C548.051 327.529 549.483 326.878 554.56 326.227C559.767 325.576 561.069 324.925 561.069 322.843C561.069 321.15 562.111 320.239 564.714 319.979C567.188 319.718 568.359 318.807 568.62 316.724C569.01 314.251 570.051 313.86 575.128 313.47C580.336 313.079 581.247 312.689 581.637 310.215C582.028 307.742 583.069 307.351 588.146 306.961C593.223 306.57 594.395 306.05 594.655 303.836C594.916 301.623 596.217 300.842 600.904 300.061C605.33 299.41 606.632 298.76 606.632 296.807C606.632 295.115 607.673 294.203 610.277 293.943C612.75 293.683 613.922 292.771 614.182 290.819C614.572 287.825 619.389 286.393 628.502 286.393C631.756 286.393 632.667 285.872 632.667 283.919C632.667 281.967 633.969 281.316 639.827 280.535C645.555 279.884 646.987 279.233 646.987 277.41C646.987 274.807 652.324 273.375 661.697 273.375C665.472 273.375 666.514 272.854 666.514 270.901C666.514 268.298 671.591 266.866 681.224 266.866C685.129 266.866 686.04 266.345 686.04 264.262C686.04 262.31 686.952 261.659 689.295 261.659H692.549V339.766V417.873H695.804H699.058V516.158V614.442H702.313H705.567V745.272V876.101H708.822C711.295 876.101 712.076 876.752 712.076 879.095C712.076 882.089 712.336 882.089 724.834 881.959C731.733 881.829 768.704 881.699 806.846 881.568C873.237 881.308 876.101 881.178 876.101 878.965C876.101 876.752 877.663 876.361 890.811 875.71C898.752 875.19 928.042 874.799 955.9 874.799H1006.28V852.018V829.237H1003.02H999.771L999.51 757.248L999.12 685.39L996.256 684.999C993.522 684.608 993.262 683.827 993.262 677.188C993.262 665.212 991.96 660.005 989.226 660.005C987.404 660.005 986.753 659.093 986.753 656.75C986.753 654.147 986.102 653.496 983.628 653.496C980.895 653.496 980.504 652.715 979.723 646.987C979.072 641.65 978.421 640.478 976.338 640.478C974.386 640.478 973.735 639.567 973.735 637.223C973.735 634.62 973.084 633.969 970.611 633.969C968.137 633.969 967.356 633.188 966.966 630.324C966.705 627.851 965.794 626.679 963.711 626.419C961.889 626.158 960.717 624.987 960.457 623.164C960.196 621.342 959.025 620.17 957.202 619.91C955.38 619.649 954.208 618.478 953.948 616.655C953.687 614.833 952.516 613.661 950.693 613.401C948.871 613.141 947.699 611.969 947.439 610.146C947.178 608.324 946.007 607.152 944.184 606.892C942.362 606.632 941.19 605.46 940.93 603.637C940.669 601.815 939.498 600.643 937.806 600.383C935.593 600.123 934.811 598.821 934.161 594.395C933.249 588.797 933.119 588.667 927.521 587.756C922.445 587.105 921.663 586.584 921.663 583.72C921.663 581.247 921.013 580.596 918.409 580.596C915.805 580.596 915.155 579.945 915.155 577.341C915.155 574.738 914.504 574.087 912.03 574.087C909.687 574.087 908.776 573.306 908.385 571.093C908.125 569.01 906.953 568.099 904.48 567.838C901.876 567.578 900.835 566.667 900.835 564.974C900.835 563.412 899.793 562.371 897.971 562.111C896.018 561.85 894.847 560.679 894.586 558.856C894.326 557.034 893.154 555.862 891.332 555.602C889.509 555.341 888.338 554.17 888.077 552.347C887.687 550.004 886.515 549.353 881.959 548.572C877.403 547.921 876.101 547.14 875.841 544.927C875.58 542.974 874.409 542.063 871.935 541.803C869.332 541.542 868.29 540.631 868.29 538.939C868.29 536.986 866.988 536.335 862.562 535.684C857.876 534.903 856.574 534.122 856.314 531.909C856.053 529.696 854.882 529.175 849.805 528.785C844.728 528.394 843.687 528.004 843.296 525.53C842.905 522.927 841.994 522.666 833.533 522.276C825.201 521.885 824.03 521.625 824.03 519.412C824.03 517.459 822.728 516.808 817.26 516.158C813.485 515.767 805.935 515.507 800.597 515.767C791.615 516.158 790.834 516.418 790.444 519.021C790.053 521.625 789.142 521.885 780.68 522.276C772.219 522.666 771.307 522.927 770.917 525.53C770.526 527.743 769.355 528.525 764.017 529.175C758.94 529.956 757.639 530.607 757.639 532.56C757.639 534.383 756.727 535.033 754.384 535.033C751.781 535.033 751.13 535.684 751.13 538.158C751.13 540.761 750.349 541.412 745.272 542.063C740.585 542.844 739.414 543.495 739.414 545.578C739.414 547.4 738.502 548.051 735.508 548.051C732.514 548.051 731.603 547.531 731.603 545.448C731.603 543.495 730.692 542.844 728.348 542.844H725.094V480.358V417.873H728.348H731.603V404.855V391.837H734.857C737.851 391.837 738.112 391.447 738.112 385.328C738.112 379.21 738.372 378.819 741.366 378.819C743.97 378.819 744.621 379.47 744.621 382.074C744.621 384.677 745.272 385.328 747.875 385.328C750.479 385.328 751.13 385.979 751.13 388.583C751.13 391.186 751.781 391.837 754.384 391.837C757.378 391.837 757.639 392.228 757.639 398.346C757.639 404.334 757.899 404.855 760.763 404.855C763.497 404.855 764.017 405.636 764.798 411.364L765.71 417.873H771.438C776.645 417.873 777.165 418.133 777.165 421.127C777.165 423.731 777.816 424.382 780.42 424.382C783.023 424.382 783.674 425.033 783.674 427.636C783.674 430.63 784.065 430.891 790.183 430.891C796.302 430.891 796.692 431.151 796.692 434.145C796.692 437.269 796.952 437.4 806.456 437.4C815.959 437.4 816.219 437.53 816.219 440.654C816.219 443.778 816.479 443.909 825.982 443.909C835.485 443.909 835.746 443.778 835.746 440.654C835.746 438.051 836.397 437.4 839 437.4C841.994 437.4 842.255 437.009 842.255 430.891C842.255 424.772 841.994 424.382 839 424.382C836.006 424.382 835.746 423.991 835.746 417.873C835.746 411.754 835.485 411.364 832.491 411.364C829.888 411.364 829.237 410.713 829.237 408.109C829.237 405.766 828.586 404.855 826.763 404.855C824.811 404.855 824.16 403.553 823.379 398.346C822.728 393.269 821.947 391.837 820.124 391.837C816.609 391.837 816.219 386.109 817.13 342.5C818.041 296.416 817.391 288.085 813.225 287.434C810.751 287.043 810.361 286.132 809.97 280.795C809.58 275.327 809.319 274.677 806.325 274.677C803.852 274.677 803.201 274.026 803.201 271.422C803.201 268.818 802.55 268.168 799.947 268.168C797.343 268.168 796.692 267.517 796.692 264.913C796.692 262.31 796.041 261.659 793.438 261.659C790.834 261.659 790.183 261.008 790.183 258.534C790.183 256.191 789.402 255.28 787.319 254.889C785.367 254.629 784.195 253.457 783.935 251.635C783.674 249.812 782.503 248.641 780.68 248.38C778.988 248.12 777.686 246.949 777.426 245.256C777.035 242.783 775.864 242.392 767.142 241.611C761.674 241.221 754.384 240.83 750.869 240.83C745.532 240.83 744.621 240.44 744.621 238.227C744.621 236.274 745.532 235.623 747.875 235.623C750.479 235.623 751.13 234.972 751.13 232.499C751.13 229.765 751.911 229.244 757.508 228.463C762.846 227.812 764.017 227.031 764.408 224.818C764.668 222.996 765.84 221.824 767.792 221.564C769.615 221.303 770.656 220.262 770.656 218.7C770.656 216.877 772.088 216.096 777.165 215.445C782.242 214.794 783.674 214.013 783.674 212.191C783.674 210.368 785.106 209.587 790.183 208.936C795.26 208.286 796.692 207.504 796.692 205.682C796.692 203.99 797.864 203.078 800.337 202.818C802.81 202.558 803.982 201.646 804.242 199.694C804.633 196.569 808.799 195.268 817.651 195.268C821.817 195.268 822.728 194.747 822.728 192.794C822.728 190.711 824.03 190.061 829.888 189.41C835.615 188.629 837.047 187.978 837.047 186.025C837.047 184.203 838.349 183.421 843.556 182.771C848.633 182.12 850.065 181.339 850.065 179.646C850.065 177.824 851.497 177.043 856.574 176.392C861.651 175.741 863.083 174.96 863.083 173.137C863.083 170.664 868.42 169.232 877.793 169.232C881.699 169.232 882.61 168.711 882.61 166.628C882.61 164.546 883.781 163.895 889.119 163.244C894.066 162.593 895.628 161.812 895.628 160.12C895.628 157.776 900.965 156.214 909.557 156.214C912.811 156.214 913.723 155.563 914.113 153.22C914.373 151.137 915.545 150.226 918.149 149.966C920.492 149.705 921.663 148.794 921.663 147.102C921.663 145.279 923.095 144.498 928.172 143.847C933.38 143.196 934.681 142.415 934.681 140.463C934.681 138.51 935.983 137.859 941.19 137.208C946.267 136.557 947.699 135.776 947.699 134.084C947.699 132.261 949.131 131.48 954.208 130.829C959.285 130.178 960.717 129.397 960.717 127.575C960.717 125.232 966.054 123.67 974.646 123.67C977.901 123.67 978.812 123.019 979.202 120.675C979.463 118.593 980.634 117.681 983.238 117.421C985.581 117.161 986.753 116.249 986.753 114.687C986.753 111.953 991.309 110.652 1000.55 110.652C1005.76 110.652 1006.28 110.391 1006.28 107.397C1006.28 104.403 1006.67 104.143 1012.79 104.143C1018.26 104.143 1019.3 103.752 1019.3 101.669C1019.3 99.0658 1024.37 97.6339 1034.01 97.6339C1038.3 97.6339 1038.82 97.2433 1038.82 94.3794C1038.82 91.2551 1039.08 91.1249 1048.59 91.1249C1057.31 91.1249 1058.35 90.8646 1058.35 88.6516C1058.35 85.7876 1063.56 84.616 1076.32 84.616C1084.13 84.616 1084.39 84.7462 1084.39 87.8705C1084.39 90.9948 1084.65 91.1249 1094.15 91.1249C1103.65 91.1249 1103.91 91.2551 1103.91 94.3794C1103.91 96.983 1104.56 97.6339 1107.17 97.6339C1109.77 97.6339 1110.42 98.2847 1110.42 100.888C1110.42 103.882 1110.81 104.143 1116.93 104.143C1123.05 104.143 1123.44 104.403 1123.44 107.397C1123.44 110.391 1123.83 110.652 1129.95 110.652C1135.94 110.652 1136.46 110.912 1136.46 113.776C1136.46 116.51 1137.24 116.9 1142.97 117.681C1148.17 118.332 1149.48 118.983 1149.48 120.936C1149.48 122.888 1150.78 123.67 1155.98 124.32C1161.06 124.971 1162.49 125.752 1162.49 127.575C1162.49 129.397 1163.93 130.178 1169 130.829C1174.08 131.48 1175.51 132.261 1175.51 134.084C1175.51 135.776 1176.94 136.557 1182.02 137.208C1187.1 137.859 1188.53 138.64 1188.53 140.463C1188.53 142.415 1189.96 143.066 1195.04 143.717C1200.25 144.368 1201.55 145.149 1201.55 146.971C1201.55 148.924 1202.98 149.575 1208.71 150.356C1214.56 151.007 1215.87 151.658 1215.87 153.611C1215.87 155.563 1217.04 156.084 1222.12 156.474C1227.32 156.865 1228.23 157.256 1228.62 159.729C1229.01 162.202 1229.93 162.723 1233.83 162.723C1243.07 162.723 1248.41 164.155 1248.41 166.628C1248.41 168.711 1250.1 169.102 1260.78 169.883C1271.32 170.664 1273.15 171.185 1273.15 173.137C1273.15 175.09 1274.97 175.611 1286.81 176.392C1299.05 177.173 1300.48 177.563 1300.48 179.776C1300.48 181.859 1301.52 182.25 1307.51 182.25C1320.14 182.25 1326.52 183.682 1326.52 186.285C1326.52 188.238 1327.56 188.759 1331.47 188.759C1340.58 188.759 1346.05 190.191 1346.05 192.664C1346.05 195.007 1351.38 196.569 1359.97 196.569C1363.23 196.569 1364.14 197.22 1364.53 199.433C1364.92 202.037 1365.83 202.427 1371.04 202.818C1376.12 203.209 1377.16 203.599 1377.55 206.073C1377.81 208.155 1378.98 209.067 1381.58 209.327C1383.93 209.587 1385.1 210.499 1385.1 212.191C1385.1 214.013 1386.53 214.794 1391.61 215.445C1397.34 216.226 1398.12 216.747 1398.12 219.481C1398.12 221.954 1398.77 222.605 1401.5 222.605C1404.63 222.605 1404.76 222.866 1404.37 228.724C1403.97 234.061 1403.58 234.972 1401.11 235.363L1398.12 235.753V268.298V300.712H1394.86H1391.61V342.76C1391.61 394.311 1390.96 404.855 1387.57 404.855C1385.23 404.855 1385.1 406.287 1385.1 426.855C1385.1 452.37 1384.45 456.926 1381.06 456.926C1378.72 456.926 1378.59 459.53 1378.59 534.252C1378.59 576.691 1378.2 613.401 1377.81 615.614C1377.16 618.348 1376.25 619.649 1374.55 619.649C1372.21 619.649 1372.08 621.602 1372.08 666.383C1372.08 718.845 1371.69 725.094 1368.05 725.094C1365.7 725.094 1365.57 726.656 1365.57 751.13V777.165H1362.32C1359.19 777.165 1359.06 777.426 1359.06 786.929V796.692H1349.3C1339.8 796.692 1339.54 796.562 1339.54 793.438V790.183H1319.36H1299.18V793.438C1299.18 796.562 1298.92 796.692 1289.42 796.692C1279.91 796.692 1279.65 796.822 1279.65 799.947C1279.65 802.55 1279 803.201 1276.4 803.201C1273.8 803.201 1273.15 803.852 1273.15 806.455C1273.15 808.799 1272.49 809.71 1270.67 809.71C1268.72 809.71 1268.07 811.012 1267.29 816.219L1266.38 822.728H1260.65C1255.44 822.728 1254.92 822.988 1254.92 825.852C1254.92 828.846 1254.4 829.107 1248.15 829.497C1242.16 829.888 1241.25 830.278 1240.86 832.752C1240.47 835.615 1239.82 835.746 1229.01 835.746C1214.04 835.746 1209.36 836.657 1209.36 839.781C1209.36 841.864 1208.06 842.255 1199.33 842.515C1189.96 842.905 1189.18 843.166 1188.79 845.769C1188.4 848.373 1187.49 848.633 1179.03 849.024C1170.43 849.414 1169.65 849.675 1169.26 852.278C1168.87 854.752 1167.96 855.272 1163.93 855.272C1155.2 855.272 1150.78 856.704 1150.78 859.308C1150.78 861.13 1149.87 861.781 1146.87 861.781C1143.62 861.781 1142.97 862.302 1142.97 864.906C1142.97 867.249 1142.19 868.16 1140.1 868.551C1138.15 868.811 1136.98 869.983 1136.72 871.805L1136.33 874.799H1192.69C1223.68 874.799 1257.39 875.19 1267.68 875.71C1284.47 876.491 1286.16 876.752 1286.16 878.965C1286.16 881.178 1288.12 881.308 1325.22 881.308C1362.45 881.308 1364.27 881.178 1364.27 878.835C1364.27 875.971 1370.78 874.799 1387.18 874.799H1398.12V861.781V848.763H1401.37H1404.63V835.746C1404.63 823.899 1404.89 822.728 1407.1 822.728C1410.09 822.728 1411.13 817.521 1411.13 801.509C1411.13 790.313 1411.13 790.183 1414.39 790.183H1417.64V770.656V751.13H1420.9H1424.15V728.348V705.567H1427.41H1430.66V669.117V632.667H1433.92H1437.17V518.761V404.855H1433.92H1430.66V339.766V274.677H1427.41H1424.15V251.895V229.114H1430.66C1436.26 229.114 1437.17 229.505 1437.17 231.587C1437.17 233.54 1438.47 234.191 1443.68 234.972C1448.76 235.623 1450.19 236.404 1450.19 238.227C1450.19 240.049 1451.62 240.83 1456.7 241.481C1461.9 242.262 1463.21 242.913 1463.21 244.866C1463.21 246.688 1464.12 247.339 1466.46 247.339C1469.06 247.339 1469.71 247.99 1469.71 250.594C1469.71 253.588 1470.11 253.848 1476.22 253.848C1482.21 253.848 1482.73 254.108 1482.73 256.972C1482.73 259.706 1483.51 260.227 1489.24 261.008C1494.32 261.659 1495.75 262.44 1495.75 264.262C1495.75 266.085 1497.18 266.866 1502.26 267.517C1507.34 268.168 1508.77 268.949 1508.77 270.771C1508.77 272.594 1510.2 273.375 1515.28 274.026C1520.35 274.677 1521.79 275.458 1521.79 277.28C1521.79 279.103 1523.22 279.884 1528.3 280.535C1533.37 281.185 1534.8 281.967 1534.8 283.789C1534.8 285.612 1536.24 286.393 1541.31 287.043C1546.39 287.694 1547.82 288.475 1547.82 290.298C1547.82 292.12 1549.25 292.901 1554.33 293.552C1559.41 294.203 1560.84 294.984 1560.84 296.807C1560.84 298.629 1562.27 299.41 1567.35 300.061C1572.43 300.712 1573.86 301.493 1573.86 303.316C1573.86 305.138 1575.29 305.919 1580.24 306.57C1585.57 307.221 1586.75 308.002 1587.14 310.215C1587.53 312.689 1588.44 313.079 1594.43 313.47C1600.02 313.86 1601.19 314.251 1601.19 316.334C1601.19 318.286 1602.5 318.937 1606.92 319.588C1611.61 320.369 1612.91 321.15 1613.17 323.363C1613.56 325.706 1614.6 326.097 1620.46 326.488C1626.06 326.878 1627.23 327.269 1627.23 329.352C1627.23 331.434 1628.53 332.085 1633.74 332.736C1638.82 333.387 1640.25 334.038 1640.25 335.991C1640.25 337.813 1641.68 338.594 1646.76 339.245C1651.83 339.896 1653.27 340.677 1653.27 342.369C1653.27 344.192 1654.7 344.973 1659.78 345.624C1665.5 346.405 1666.28 346.926 1666.28 349.659C1666.28 352.523 1666.8 352.784 1672.79 352.784C1678.26 352.784 1679.3 353.174 1679.3 355.257C1679.3 357.861 1683.73 359.293 1692.45 359.293C1696.49 359.293 1697.4 359.813 1697.79 362.156C1698.18 364.76 1699.09 365.151 1705.08 365.541C1710.68 365.932 1711.85 366.322 1711.85 368.405C1711.85 370.488 1713.15 371.139 1718.36 371.79C1724.08 372.571 1724.86 372.961 1724.86 375.695C1724.86 378.559 1725.39 378.819 1731.37 378.819C1736.97 378.819 1737.88 379.21 1737.88 381.293C1737.88 383.245 1739.18 383.896 1744.39 384.677C1749.47 385.328 1750.9 386.109 1750.9 387.932C1750.9 390.405 1756.24 391.837 1765.61 391.837C1769.91 391.837 1770.43 392.228 1770.43 395.092C1770.43 398.086 1770.82 398.346 1776.94 398.346C1783.05 398.346 1783.44 398.606 1783.44 401.601C1783.44 404.725 1783.71 404.855 1793.21 404.855C1802.71 404.855 1802.97 404.985 1802.97 408.109C1802.97 411.104 1803.36 411.364 1809.48 411.364C1815.6 411.364 1815.99 411.624 1815.99 414.618C1815.99 417.612 1816.38 417.873 1822.5 417.873C1828.62 417.873 1829.01 418.133 1829.01 421.127C1829.01 424.252 1829.27 424.382 1838.77 424.382C1848.27 424.382 1848.53 424.512 1848.53 427.636C1848.53 430.63 1848.92 430.891 1855.04 430.891C1861.16 430.891 1861.55 431.151 1861.55 434.145C1861.55 437.269 1861.94 437.4 1868.71 437.4C1875.48 437.4 1875.87 437.53 1875.87 440.654C1875.87 443.778 1876.13 443.909 1884.98 443.909C1893.84 443.909 1894.1 444.039 1894.1 447.163C1894.1 450.157 1894.62 450.417 1899.82 450.417C1909.2 450.417 1913.62 451.719 1913.62 454.453C1913.62 456.536 1914.66 456.926 1920.13 456.926C1926.25 456.926 1926.64 457.187 1926.64 460.181C1926.64 463.305 1926.9 463.435 1936.4 463.435C1945.91 463.435 1946.17 463.565 1946.17 466.69C1946.17 469.684 1946.69 469.944 1951.9 469.944C1961.27 469.944 1965.69 471.246 1965.69 473.98C1965.69 476.063 1966.74 476.453 1972.85 476.453C1979.62 476.453 1980.01 476.583 1980.01 479.708C1980.01 482.962 1980.01 482.962 1992.38 482.962C2004.75 482.962 2004.75 482.962 2004.75 486.217C2004.75 489.211 2005.27 489.471 2010.48 489.471C2019.72 489.471 2024.27 490.773 2024.27 493.507C2024.27 495.589 2025.58 495.98 2034.43 496.24C2043.67 496.631 2044.45 496.891 2044.84 499.495C2045.23 502.098 2046.14 502.359 2054.61 502.749C2063.2 503.14 2063.98 503.4 2064.37 506.134C2064.76 508.868 2065.41 508.998 2074.52 508.998C2083.9 508.998 2084.16 509.128 2084.16 512.252C2084.16 515.376 2084.42 515.507 2092.49 515.507C2104.33 515.507 2108.89 516.678 2108.89 519.542C2108.89 521.625 2109.93 522.016 2116.05 522.016C2122.82 522.016 2123.21 522.146 2123.21 525.27C2123.21 528.264 2123.6 528.525 2129.72 528.525C2135.84 528.525 2136.23 528.264 2136.23 525.27C2136.23 522.666 2135.58 522.016 2132.97 522.016C2130.63 522.016 2129.72 521.365 2129.72 519.542C2129.72 517.72 2128.68 516.808 2126.2 516.548C2123.6 516.288 2122.43 515.376 2122.17 513.294C2121.78 510.82 2120.61 510.169 2115.27 509.518C2110.32 508.868 2108.89 508.086 2108.89 506.264C2108.89 504.572 2107.46 503.791 2103.03 503.01C2097.96 502.359 2097.17 501.708 2097.17 499.104C2097.17 496.24 2096.65 495.98 2090.67 495.98C2084.55 495.98 2084.16 495.72 2084.16 492.725C2084.16 490.122 2083.51 489.471 2081.03 489.471C2078.69 489.471 2077.78 488.69 2077.39 486.477C2077 484.003 2076.09 483.613 2070.88 483.222C2065.28 482.832 2064.63 482.572 2064.63 479.577C2064.63 476.974 2063.98 476.453 2060.72 476.453C2057.47 476.453 2056.82 475.932 2056.82 473.199C2056.82 470.205 2056.3 469.944 2050.96 469.944C2045.62 469.944 2045.1 469.684 2045.1 466.69C2045.1 463.956 2044.45 463.435 2041.2 463.435C2038.2 463.435 2037.29 462.915 2037.29 460.832C2037.29 458.749 2036.12 458.098 2030.78 457.447C2025.71 456.796 2024.27 456.145 2024.27 454.193C2024.27 452.37 2022.84 451.589 2017.77 450.938C2012.04 450.157 2011.26 449.767 2011.26 447.033C2011.26 444.169 2010.74 443.909 2005.4 443.909C2000.06 443.909 1999.54 443.648 1999.54 440.654C1999.54 437.66 1999.15 437.4 1993.03 437.4C1986.91 437.4 1986.52 437.139 1986.52 434.145C1986.52 431.151 1986.13 430.891 1980.01 430.891C1973.9 430.891 1973.51 430.63 1973.51 427.636C1973.51 424.642 1973.11 424.382 1967 424.382C1960.88 424.382 1960.49 424.121 1960.49 421.127C1960.49 418.133 1960.1 417.873 1953.98 417.873C1947.86 417.873 1947.47 417.612 1947.47 414.618C1947.47 411.885 1946.82 411.364 1943.56 411.364C1940.31 411.364 1939.66 410.843 1939.66 408.109C1939.66 405.115 1939.27 404.855 1933.15 404.855C1927.03 404.855 1926.64 404.595 1926.64 401.601C1926.64 398.606 1926.25 398.346 1920.13 398.346C1914.01 398.346 1913.62 398.086 1913.62 395.092C1913.62 392.098 1913.23 391.837 1907.11 391.837C1901 391.837 1900.61 391.577 1900.61 388.583C1900.61 385.719 1900.08 385.328 1895.53 385.328C1886.81 385.328 1882.38 383.896 1882.38 381.293C1882.38 379.47 1881.47 378.819 1878.48 378.819C1875.22 378.819 1874.57 378.299 1874.57 375.565C1874.57 372.701 1874.05 372.31 1869.49 372.31C1860.77 372.31 1856.34 370.878 1856.34 368.275C1856.34 366.192 1855.3 365.801 1849.18 365.801C1842.42 365.801 1842.03 365.671 1842.03 362.547C1842.03 359.553 1841.63 359.293 1835.52 359.293C1829.4 359.293 1829.01 359.032 1829.01 356.038C1829.01 353.044 1828.62 352.784 1822.5 352.784C1816.38 352.784 1815.99 352.523 1815.99 349.529C1815.99 346.535 1815.6 346.275 1809.48 346.275C1803.49 346.275 1802.97 346.014 1802.97 343.15C1802.97 340.156 1802.45 339.896 1796.2 339.505C1790.21 339.115 1789.3 338.724 1788.91 336.121C1788.52 333.908 1787.61 333.257 1784.36 333.257C1775.63 333.257 1770.43 331.695 1770.43 329.221C1770.43 327.659 1769.26 326.748 1766.91 326.488C1764.31 326.227 1763.14 325.316 1762.88 323.103C1762.49 320.89 1761.57 320.239 1758.32 320.239C1749.6 320.239 1744.39 318.677 1744.39 316.203C1744.39 314.641 1743.22 313.73 1740.88 313.47C1738.27 313.209 1737.1 312.298 1736.84 310.085C1736.45 307.742 1735.54 307.221 1731.5 307.221C1723.04 307.221 1718.36 305.789 1718.36 303.316C1718.36 301.493 1716.92 300.712 1711.85 300.061C1706.77 299.41 1705.34 298.629 1705.34 296.807C1705.34 295.115 1703.91 294.333 1698.83 293.683C1693.62 293.032 1692.32 292.251 1692.32 290.428C1692.32 288.475 1690.89 287.825 1685.16 287.043C1679.3 286.393 1678 285.742 1678 283.789C1678 281.836 1676.83 281.316 1671.88 280.925C1666.54 280.535 1665.63 280.144 1665.24 277.671C1664.85 275.197 1663.81 274.807 1658.73 274.416C1653.53 274.026 1652.62 273.635 1652.22 271.162C1651.83 268.688 1650.79 268.298 1645.72 267.907C1640.51 267.517 1639.6 267.126 1639.21 264.653C1638.82 262.179 1637.78 261.789 1632.7 261.398C1627.49 261.008 1626.58 260.617 1626.19 258.144C1625.8 255.67 1624.76 255.28 1619.68 254.889C1614.47 254.499 1613.56 254.108 1613.17 251.635C1612.78 249.162 1611.74 248.771 1606.66 248.38C1601.46 247.99 1600.54 247.599 1600.15 244.996C1599.76 242.653 1598.85 242.132 1594.82 242.132C1586.35 242.132 1581.67 240.7 1581.67 238.227C1581.67 236.404 1580.11 235.753 1574.51 234.972C1568.78 234.321 1567.35 233.67 1567.35 231.718C1567.35 229.895 1565.92 229.114 1560.84 228.463C1555.76 227.812 1554.33 227.031 1554.33 225.209C1554.33 223.386 1552.9 222.605 1547.82 221.954C1542.74 221.303 1541.31 220.522 1541.31 218.7C1541.31 216.877 1539.88 216.096 1534.8 215.445C1529.73 214.794 1528.3 214.013 1528.3 212.191C1528.3 209.717 1522.96 208.286 1513.72 208.286C1509.29 208.286 1508.77 207.895 1508.77 205.031C1508.77 202.427 1508.12 201.777 1505.51 201.777C1503.17 201.777 1502.26 201.126 1502.26 199.173C1502.26 197.09 1501.35 196.569 1498.09 196.569C1488.98 196.569 1484.16 195.138 1483.77 192.143C1483.38 189.8 1482.34 189.41 1476.61 189.019C1470.24 188.629 1469.71 188.368 1469.71 185.374C1469.71 182.51 1469.19 182.25 1463.21 182.25C1457.09 182.25 1456.7 181.99 1456.7 178.995C1456.7 176.001 1456.31 175.741 1450.19 175.741C1444.07 175.741 1443.68 175.481 1443.68 172.486C1443.68 169.492 1443.29 169.232 1437.17 169.232C1431.05 169.232 1430.66 168.972 1430.66 165.978C1430.66 162.983 1430.27 162.723 1424.15 162.723C1418.03 162.723 1417.64 162.463 1417.64 159.469C1417.64 156.474 1417.25 156.214 1411.13 156.214C1405.02 156.214 1404.63 155.954 1404.63 152.96C1404.63 149.966 1404.23 149.705 1398.12 149.705C1392 149.705 1391.61 149.445 1391.61 146.451C1391.61 143.717 1390.96 143.196 1387.7 143.196C1384.71 143.196 1383.8 142.545 1383.8 140.723C1383.8 138.119 1379.37 136.687 1370.65 136.687C1366.09 136.687 1365.57 136.297 1365.57 133.433C1365.57 130.439 1365.18 130.178 1359.19 130.178C1353.47 130.178 1352.68 129.788 1352.29 127.184C1351.9 124.711 1350.99 124.32 1345.78 123.93C1340.19 123.539 1339.54 123.279 1339.54 120.285C1339.54 117.421 1339.02 117.161 1333.16 117.161C1327.43 117.161 1326.65 116.77 1326.26 114.167C1325.87 111.693 1324.96 111.303 1319.1 110.912C1312.72 110.522 1312.2 110.261 1312.2 107.267C1312.2 104.403 1311.68 104.143 1305.69 104.143C1300.09 104.143 1299.18 103.752 1299.18 101.539C1299.18 99.4564 1298.01 98.8055 1292.67 98.1545C1287.6 97.5037 1286.16 96.8528 1286.16 94.9001C1286.16 93.0776 1284.73 92.2966 1279.65 91.6456C1274.71 90.9948 1273.15 90.2137 1273.15 88.5214C1273.15 86.048 1268.46 84.616 1260 84.616C1255.96 84.616 1255.05 84.0953 1254.66 81.6219C1254.27 79.1485 1253.36 78.758 1248.15 78.3674C1242.55 77.9769 1241.9 77.7166 1241.9 74.7225C1241.9 71.7283 1241.51 71.5981 1234.74 71.5981C1227.97 71.5981 1227.58 71.468 1227.58 68.3437C1227.58 65.3496 1227.19 65.0892 1221.07 65.0892C1214.96 65.0892 1214.56 64.8289 1214.56 61.8348C1214.56 58.7105 1214.3 58.5803 1205.45 58.5803C1196.6 58.5803 1196.34 58.4501 1196.34 55.3259C1196.34 52.3318 1195.95 52.0714 1189.83 52.0714C1183.71 52.0714 1183.32 51.811 1183.32 48.817C1183.32 45.8228 1182.93 45.5625 1176.81 45.5625C1170.69 45.5625 1170.3 45.3021 1170.3 42.308C1170.3 39.1837 1169.91 39.0536 1163.14 39.0536C1156.38 39.0536 1155.98 38.9234 1155.98 35.7991C1155.98 32.6748 1155.72 32.5446 1146.87 32.5446C1138.02 32.5446 1137.76 32.4145 1137.76 29.2902C1137.76 26.1659 1137.37 26.0357 1130.6 26.0357C1123.83 26.0357 1123.44 25.9055 1123.44 22.7812C1123.44 19.7872 1123.05 19.5268 1116.93 19.5268C1110.81 19.5268 1110.42 19.2664 1110.42 16.2723C1110.42 13.6688 1109.77 13.0179 1107.17 13.0179C1104.56 13.0179 1103.91 12.367 1103.91 9.76343C1103.91 6.89948 1103.39 6.50897 1099.1 6.50897C1089.46 6.50897 1084.39 5.07697 1084.39 2.47345C1084.39 0.260376 1083.35 0 1074.62 0C1065.12 0 1064.86 0.130188 1064.86 3.25452ZM842.645 626.419C843.166 636.703 843.556 651.283 843.556 658.963C843.556 672.111 843.687 673.023 846.16 673.023C848.633 673.023 848.763 673.934 848.763 685.259V697.626L843.296 698.407C840.172 698.798 825.722 699.058 811.012 698.798L784.325 698.407L783.935 656.62L783.674 614.833L788.491 613.922C791.225 613.531 798.515 613.141 804.893 613.141C815.308 613.141 816.219 612.88 816.219 610.537C816.219 608.064 817.13 607.933 828.976 607.933H841.864L842.645 626.419Z" fill="#BC510F"/>
<path d="M999.771 159.338C999.771 162.463 999.381 162.723 993.393 162.723H987.014L986.493 177.954C986.233 186.415 986.233 198.392 986.493 204.64C987.014 214.664 987.274 216.096 989.357 216.096C990.919 216.096 991.961 217.268 992.221 218.96C992.612 221.694 993.393 221.954 1002.77 222.345C1012.79 222.735 1012.79 222.735 1012.79 219.351C1012.79 216.747 1013.44 216.096 1016.04 216.096C1019.04 216.096 1019.3 215.706 1019.3 209.717C1019.3 203.989 1019.69 203.208 1022.29 202.818C1025.03 202.427 1025.16 201.907 1025.55 186.415L1025.94 170.534H1022.55C1019.82 170.534 1019.3 169.883 1019.3 166.628C1019.3 163.113 1018.91 162.723 1015.39 162.723C1012.4 162.723 1011.49 162.202 1011.49 160.119C1011.49 158.687 1010.71 157.516 1009.66 157.516C1008.75 157.516 1006.02 157.125 1003.81 156.735C1000.16 155.954 999.771 156.214 999.771 159.338Z" fill="#BC510F"/>
<path d="M1162.49 160.12C1162.49 162.593 1161.58 162.723 1141.14 162.723C1113.81 162.723 1112.24 162.984 1111.07 168.711C1110.68 171.185 1110.68 175.22 1111.2 177.694L1111.98 182.25H1133.98C1154.55 182.25 1155.98 182.12 1155.98 179.777C1155.98 177.694 1157.42 177.303 1169 176.392L1182.02 175.481V169.102C1182.02 163.114 1181.76 162.723 1178.77 162.723C1176.42 162.723 1175.51 162.072 1175.51 160.12C1175.51 156.344 1170.69 156.605 1169.91 160.38L1169.39 163.374L1169.13 160.38C1169 156.475 1162.49 156.214 1162.49 160.12Z" fill="#BC510F"/>
<path d="M865.426 241.741C862.953 242.132 861.781 243.043 861.781 244.735C861.781 246.428 860.479 247.209 856.053 247.86L850.456 248.771L849.544 257.493C848.503 268.818 848.503 293.552 849.675 312.038C850.325 324.925 850.716 326.748 852.799 326.748C854.491 326.748 855.272 328.31 855.923 333.257L856.834 339.766H862.432H868.03L868.941 333.257C869.722 328.05 870.373 326.748 872.326 326.748C874.148 326.748 874.799 325.837 874.799 323.493C874.799 320.89 875.45 320.239 878.053 320.239C880.657 320.239 881.308 319.588 881.308 317.115C881.308 314.641 882.089 313.86 884.953 313.47C887.426 313.209 888.598 312.298 888.858 310.085C889.249 308.002 890.16 307.221 892.503 307.221C894.977 307.221 895.627 306.57 895.627 304.097C895.627 301.754 896.409 300.842 898.622 300.452C901.095 300.061 901.486 299.15 901.876 293.162C902.136 287.694 902.657 286.392 904.61 286.392C906.823 286.392 907.083 284.57 907.994 269.469C908.515 260.227 908.515 250.333 907.994 247.469C907.344 243.173 906.562 242.262 903.178 241.611C898.882 240.83 871.284 240.83 865.426 241.741Z" fill="#BC510F"/>
<path d="M960.717 264.132C960.717 266.215 959.415 266.866 953.557 267.517C947.83 268.298 946.398 268.949 946.398 270.771C946.398 272.594 944.966 273.375 939.889 274.026C934.812 274.676 933.38 275.458 933.38 277.28C933.38 279.103 932.078 279.884 927.652 280.535C921.924 281.446 921.924 281.446 921.013 287.825C920.232 292.901 919.581 294.203 917.628 294.203C915.806 294.203 915.155 295.115 915.155 297.458C915.155 299.801 915.806 300.712 917.628 300.712C920.622 300.712 921.664 305.919 921.664 321.801C921.664 332.996 921.533 333.257 918.539 333.257C916.066 333.257 915.415 334.038 914.634 338.073C913.593 344.452 913.593 352.133 914.634 359.813C915.285 364.5 916.066 365.801 917.888 365.801C919.971 365.801 920.362 366.843 920.362 372.31C920.362 377.908 919.971 378.819 917.758 378.819C915.806 378.819 915.155 379.73 915.155 382.074C915.155 384.677 914.504 385.328 912.03 385.328C909.167 385.328 909.036 385.979 908.255 395.092C907.735 400.429 907.735 409.281 908.255 414.618C908.906 422.95 909.427 424.382 911.38 424.382C913.202 424.382 913.853 425.293 913.853 427.636C913.853 430.76 914.243 430.891 921.013 430.891C927.782 430.891 928.173 430.76 928.173 427.636C928.173 424.642 928.693 424.382 933.9 424.382H939.628L940.54 417.873C941.321 412.145 941.841 411.364 944.575 411.364C947.048 411.364 947.699 410.713 947.699 408.109V404.855H973.735H999.771V401.6C999.771 398.997 999.12 398.346 996.516 398.346C993.392 398.346 993.262 398.086 993.262 388.583C993.262 379.08 993.392 378.819 996.516 378.819C999.641 378.819 999.771 378.559 999.771 369.056C999.771 359.553 999.641 359.292 996.646 359.292C993.913 359.292 993.392 358.511 992.611 352.784C991.83 347.576 991.179 346.275 989.226 346.275C987.404 346.275 986.753 345.363 986.753 342.369C986.753 339.375 987.274 338.464 989.356 338.464C991.049 338.464 991.96 337.553 991.96 335.86C991.96 333.517 992.871 333.257 999.12 333.257C1005.89 333.257 1006.28 333.127 1006.28 330.002C1006.28 327.659 1006.93 326.748 1008.88 326.748C1011.1 326.748 1011.49 325.837 1011.49 320.239C1011.49 314.641 1011.1 313.73 1008.88 313.73C1006.93 313.73 1006.28 312.819 1006.28 310.476C1006.28 307.872 1005.63 307.221 1003.16 307.221C1000.68 307.221 999.901 306.44 999.51 303.576C999.25 301.103 998.339 299.931 996.256 299.671C994.043 299.28 993.262 298.109 992.611 292.771C991.96 287.694 991.179 286.393 989.226 286.393C987.143 286.393 986.753 285.091 986.493 276.89C986.102 268.298 985.842 267.517 983.238 267.126C981.285 266.866 980.244 265.824 980.244 264.132C980.244 261.919 979.203 261.659 970.481 261.659C961.759 261.659 960.717 261.919 960.717 264.132Z" fill="#BC510F"/>
<path d="M1051.84 356.039V404.855H1058.35C1064.47 404.855 1064.86 404.595 1064.86 401.601C1064.86 398.607 1065.25 398.347 1071.37 398.347C1077.49 398.347 1077.88 398.086 1077.88 395.092C1077.88 392.489 1078.53 391.838 1081.13 391.838C1083.74 391.838 1084.39 391.187 1084.39 388.583C1084.39 385.589 1084.78 385.329 1090.89 385.329C1097.01 385.329 1097.4 385.068 1097.4 382.074C1097.4 379.471 1098.05 378.82 1100.66 378.82C1103.26 378.82 1103.91 378.169 1103.91 375.565C1103.91 372.571 1104.3 372.311 1110.42 372.311C1116.54 372.311 1116.93 372.051 1116.93 369.056C1116.93 366.453 1117.58 365.802 1120.18 365.802C1123.31 365.802 1123.44 365.542 1123.44 356.039C1123.44 346.536 1123.31 346.275 1120.18 346.275C1117.58 346.275 1116.93 345.624 1116.93 343.021C1116.93 340.027 1116.54 339.766 1110.42 339.766C1104.43 339.766 1103.91 339.506 1103.91 336.642C1103.91 333.908 1103.13 333.388 1097.4 332.606C1092.2 331.825 1090.89 331.174 1090.89 329.222C1090.89 327.399 1089.98 326.748 1087.64 326.748C1085.04 326.748 1084.39 326.098 1084.39 323.494C1084.39 320.89 1083.74 320.239 1081.13 320.239C1078.53 320.239 1077.88 319.589 1077.88 317.115C1077.88 314.381 1077.1 313.861 1071.37 313.08C1066.16 312.299 1064.86 311.648 1064.86 309.695C1064.86 307.612 1063.95 307.222 1058.35 307.222H1051.84V356.039Z" fill="#BC510F"/>
<path d="M1299.18 355.257C1299.18 358.121 1294.62 359.293 1282.78 359.293C1275.36 359.293 1274.58 359.553 1274.19 362.157C1273.8 364.76 1272.89 365.151 1267.03 365.541C1260.65 365.932 1260.13 366.192 1260.13 369.186C1260.13 372.05 1259.61 372.31 1253.62 372.31C1248.02 372.31 1247.11 372.701 1247.11 374.914C1247.11 376.997 1245.94 377.648 1240.6 378.299C1234.87 379.08 1234.09 379.47 1234.09 382.204C1234.09 385.068 1233.57 385.328 1227.58 385.328C1221.46 385.328 1221.07 385.589 1221.07 388.583C1221.07 391.577 1220.68 391.837 1214.57 391.837C1208.45 391.837 1208.06 392.098 1208.06 395.092C1208.06 398.086 1207.67 398.346 1201.55 398.346C1195.43 398.346 1195.04 398.607 1195.04 401.601C1195.04 404.595 1194.52 404.855 1189.18 404.855H1183.32V411.364V417.873H1189.18C1194.52 417.873 1195.04 418.133 1195.04 421.127V424.382H1214.57H1234.09V421.127V417.873H1253.62H1273.15V414.618V411.364H1292.67H1312.2V408.11V404.855H1325.87H1339.54V401.601C1339.54 398.607 1339.93 398.346 1346.05 398.346C1352.42 398.346 1352.55 398.216 1352.55 394.441C1352.55 391.447 1353.07 390.535 1355.16 390.535C1356.59 390.535 1357.76 389.754 1357.76 388.713C1357.76 387.802 1358.15 385.068 1358.54 382.855C1359.32 379.21 1359.06 378.819 1355.94 378.819C1353.21 378.819 1352.55 378.168 1352.55 375.565C1352.55 372.961 1351.9 372.31 1349.3 372.31C1346.7 372.31 1346.05 371.66 1346.05 369.186C1346.05 366.192 1345.52 365.932 1339.28 365.541C1333.29 365.151 1332.38 364.76 1331.99 362.157C1331.6 359.553 1330.94 359.293 1322.48 359.293C1313.76 359.293 1313.5 359.162 1313.5 356.038C1313.5 352.914 1313.11 352.784 1306.34 352.784C1300.22 352.784 1299.18 353.174 1299.18 355.257Z" fill="#BC510F"/>
<path d="M1136.46 460.051C1136.46 463.045 1135.81 463.306 1130.34 463.696L1124.09 464.087L1123.7 470.205C1123.31 475.803 1123.05 476.454 1120.06 476.454C1117.06 476.454 1116.93 476.714 1116.93 486.217C1116.93 495.72 1117.06 495.98 1120.06 495.98C1122.53 495.98 1123.31 496.761 1123.7 499.495C1123.96 502.099 1124.87 503.27 1127.09 503.531C1128.91 503.791 1129.95 504.832 1129.95 506.525C1129.95 508.347 1130.86 508.998 1133.2 508.998C1135.81 508.998 1136.46 509.649 1136.46 512.253C1136.46 514.856 1137.11 515.507 1139.71 515.507C1142.32 515.507 1142.97 516.158 1142.97 518.631C1142.97 521.365 1143.75 521.886 1149.35 522.667C1154.68 523.318 1155.85 524.099 1156.25 526.312C1156.51 528.134 1157.68 529.306 1159.63 529.566C1161.45 529.827 1162.49 530.868 1162.49 532.561C1162.49 534.383 1163.41 535.034 1165.75 535.034C1168.35 535.034 1169 535.685 1169 538.158C1169 540.632 1169.78 541.413 1172.65 541.803C1175.12 542.064 1176.29 542.975 1176.55 544.927C1176.81 547.141 1178.12 547.922 1182.8 548.703C1187.1 549.354 1188.53 550.135 1188.53 551.827C1188.53 553.649 1189.96 554.43 1195.04 555.081C1200.25 555.732 1201.55 556.513 1201.55 558.336C1201.55 560.289 1202.98 560.939 1208.71 561.72C1214.57 562.371 1215.87 563.022 1215.87 565.105C1215.87 567.058 1216.78 567.579 1220.16 567.579C1228.75 567.579 1234.09 569.141 1234.09 571.484C1234.09 573.176 1235.65 573.957 1240.6 574.608C1245.68 575.259 1247.11 576.04 1247.11 577.863C1247.11 579.815 1248.54 580.466 1253.62 581.117L1260.13 582.028V600.774C1260.13 618.348 1260 619.65 1257.65 619.65C1254.53 619.65 1253.62 626.159 1253.62 649.07C1253.62 665.603 1253.49 666.514 1251.02 666.514C1249.06 666.514 1248.41 667.425 1248.41 669.769C1248.41 672.112 1249.06 673.023 1251.02 673.023C1253.36 673.023 1253.62 673.934 1253.62 683.307C1253.62 699.059 1254.79 705.568 1257.65 705.568C1260 705.568 1260.13 706.869 1260.13 723.402C1260.13 745.532 1260.91 751.13 1264.03 751.13C1265.86 751.13 1266.64 752.562 1267.29 757.639L1268.2 764.148H1294.1H1320.01V760.893C1320.01 758.55 1320.66 757.639 1322.61 757.639C1324.83 757.639 1325.22 756.728 1325.22 751.13C1325.22 745.532 1324.83 744.621 1322.61 744.621C1320.14 744.621 1320.01 743.71 1320.01 712.988C1320.01 695.674 1319.62 670.55 1319.1 657.011C1318.32 634.49 1318.06 632.668 1315.84 632.668C1313.63 632.668 1313.5 630.585 1313.5 589.318C1313.5 540.501 1313.11 536.596 1309.08 536.075C1307.38 535.815 1306.21 534.643 1305.95 532.951C1305.43 529.566 1301.39 528.525 1289.29 528.525C1281.87 528.525 1281.09 528.265 1280.7 525.531C1280.31 523.057 1279.39 522.667 1274.19 522.276C1269.11 521.886 1268.07 521.495 1267.68 519.022C1267.42 516.939 1266.25 516.028 1263.77 515.767C1261.17 515.507 1260.13 514.596 1260.13 512.904C1260.13 510.821 1258.83 510.17 1253.62 509.519C1247.89 508.738 1247.11 508.347 1247.11 505.614C1247.11 502.75 1246.59 502.489 1241.38 502.489C1236.31 502.489 1235.52 502.099 1235.13 499.495C1234.87 497.412 1233.7 496.501 1231.23 496.241C1228.36 495.85 1227.58 495.069 1227.58 492.596C1227.58 489.732 1227.06 489.471 1221.86 489.471C1216.78 489.471 1216 489.081 1215.61 486.477C1215.35 484.395 1214.17 483.483 1211.7 483.223C1208.84 482.832 1208.06 482.051 1208.06 479.578C1208.06 476.714 1207.54 476.454 1202.2 476.454C1196.86 476.454 1196.34 476.193 1196.34 473.199C1196.34 470.465 1195.69 469.945 1192.44 469.945C1189.18 469.945 1188.53 469.424 1188.53 466.69C1188.53 463.696 1188.14 463.436 1182.02 463.436C1175.9 463.436 1175.51 463.175 1175.51 460.181V456.927H1155.99H1136.46V460.051Z" fill="#BC510F"/>
<path d="M1170.3 655.969C1170.3 658.052 1169 658.703 1163.01 659.484L1155.72 660.265L1156.25 684.739C1156.51 698.277 1157.03 709.733 1157.55 710.123C1158.07 710.644 1162.62 711.425 1167.7 711.816C1175.38 712.336 1176.81 712.857 1176.81 714.81C1176.81 716.502 1178.25 717.283 1182.67 718.064C1188.4 718.845 1188.53 718.976 1188.53 723.662C1188.53 733.035 1189.96 738.112 1192.57 738.112C1194.78 738.112 1195.04 739.283 1195.04 751.13C1195.04 762.976 1194.78 764.148 1192.7 764.148C1190.48 764.148 1190.09 765.71 1189.44 778.727C1188.4 796.822 1189.18 803.201 1192.57 803.201C1194.39 803.201 1195.04 804.112 1195.04 806.456C1195.04 809.58 1195.3 809.71 1204.8 809.71C1214.3 809.71 1214.57 809.58 1214.57 806.456C1214.57 803.722 1215.22 803.201 1218.47 803.201C1221.73 803.201 1222.38 802.68 1222.38 799.947C1222.38 797.343 1223.03 796.692 1225.63 796.692C1228.23 796.692 1228.88 796.041 1228.88 793.438C1228.88 791.094 1229.54 790.183 1231.49 790.183C1233.44 790.183 1234.09 789.272 1234.09 786.929C1234.09 784.195 1234.74 783.674 1238 783.674C1241.25 783.674 1241.9 783.154 1241.9 780.42C1241.9 778.077 1242.55 777.165 1244.38 777.165C1247.63 777.165 1248.41 771.958 1248.41 748.396C1248.41 723.792 1247.5 717.283 1244.38 717.283C1242.29 717.283 1241.9 716.242 1241.9 711.686C1241.9 708.561 1241.51 701.532 1241.12 696.064C1240.34 687.342 1239.95 686.171 1237.48 685.78C1235.78 685.52 1234.61 684.218 1234.35 682.395C1234.09 680.573 1233.05 679.532 1231.49 679.532C1229.67 679.532 1228.88 678.1 1228.23 673.153C1227.58 667.815 1226.8 666.644 1224.59 666.253C1222.77 665.993 1221.59 664.821 1221.33 662.999C1221.07 661.176 1219.9 660.005 1218.08 659.744C1216.26 659.484 1215.09 658.312 1214.83 656.36C1214.44 653.496 1214.17 653.496 1192.3 653.496C1171.48 653.496 1170.3 653.626 1170.3 655.969Z" fill="#BC510F"/>
<path d="M1108.21 672.632C1104.69 673.023 1103.91 673.804 1103.91 676.407C1103.91 678.881 1103.26 679.532 1100.66 679.532C1097.66 679.532 1097.4 680.052 1097.4 685.39C1097.4 690.727 1097.14 691.248 1094.15 691.248C1091.03 691.248 1090.9 691.638 1090.9 698.407C1090.9 705.177 1090.77 705.567 1087.64 705.567C1085.04 705.567 1084.39 706.218 1084.39 708.822C1084.39 711.425 1083.74 712.076 1081.13 712.076C1078.79 712.076 1077.88 712.727 1077.88 714.68C1077.88 716.632 1076.97 717.283 1074.62 717.283C1072.28 717.283 1071.37 716.632 1071.37 714.68C1071.37 712.727 1070.46 712.076 1068.11 712.076C1065.51 712.076 1064.86 711.425 1064.86 708.822C1064.86 706.218 1064.21 705.567 1061.61 705.567C1059 705.567 1058.35 704.916 1058.35 702.313C1058.35 699.188 1057.96 699.058 1051.19 699.058C1044.94 699.058 1044.03 699.319 1044.03 701.662C1044.03 703.354 1043.12 704.265 1041.43 704.265C1038.95 704.265 1038.82 705.177 1038.82 724.443V744.621H1035.57H1032.32V757.639V770.656H1029.06C1025.94 770.656 1025.81 770.917 1025.81 780.42C1025.81 789.923 1025.68 790.183 1022.55 790.183C1019.56 790.183 1019.3 790.574 1019.3 796.432C1019.3 799.947 1018.91 807.237 1018.52 812.704C1017.74 821.296 1017.21 822.728 1015.26 822.728C1013.44 822.728 1012.79 823.639 1012.79 825.982C1012.79 828.326 1013.44 829.237 1015.26 829.237C1018.13 829.237 1019.3 834.444 1019.3 847.071V855.272H1028.28H1037.26L1038.04 851.237C1038.43 849.024 1038.82 844.858 1038.82 842.124C1038.82 838.089 1039.34 837.178 1041.82 836.787C1044.42 836.397 1044.68 835.616 1045.07 826.243C1045.46 816.609 1045.59 816.219 1048.59 816.219C1051.58 816.219 1051.84 815.698 1051.84 809.71C1051.84 803.592 1052.1 803.201 1055.1 803.201C1057.7 803.201 1058.35 802.55 1058.35 799.947C1058.35 797.343 1059 796.692 1061.61 796.692H1064.86V777.165V757.639H1068.11C1070.72 757.639 1071.37 756.988 1071.37 754.384C1071.37 751.26 1071.63 751.13 1081.13 751.13C1090.64 751.13 1090.9 751.26 1090.9 754.384C1090.9 756.988 1091.55 757.639 1094.15 757.639H1097.4V793.438V829.237H1094.15C1091.55 829.237 1090.9 829.888 1090.9 832.491C1090.9 835.095 1091.55 835.746 1094.15 835.746C1097.14 835.746 1097.4 836.136 1097.4 842.255V848.764H1107.17C1116.67 848.764 1116.93 848.633 1116.93 845.509V842.255H1129.95H1142.97V839C1142.97 836.397 1143.62 835.746 1146.22 835.746C1148.83 835.746 1149.48 835.095 1149.48 832.491C1149.48 829.888 1150.13 829.237 1152.73 829.237C1155.33 829.237 1155.98 828.586 1155.98 825.982C1155.98 823.379 1156.64 822.728 1159.24 822.728H1162.49V790.183C1162.49 759.331 1162.36 757.639 1160.02 757.639C1156.9 757.639 1155.98 752.431 1155.98 733.165C1155.98 719.757 1155.72 718.585 1153.51 718.585C1150.65 718.585 1149.48 713.378 1149.48 700.62C1149.48 692.94 1149.35 692.549 1146.22 692.549C1143.62 692.549 1142.97 691.898 1142.97 689.295C1142.97 686.691 1142.32 686.04 1139.71 686.04C1137.11 686.04 1136.46 685.39 1136.46 682.916C1136.46 680.182 1135.68 679.662 1129.95 678.881C1124.74 678.1 1123.44 677.449 1123.44 675.496C1123.44 674.194 1122.66 673.023 1121.62 673.023C1120.71 673.023 1118.23 672.762 1116.15 672.502C1114.07 672.242 1110.42 672.242 1108.21 672.632Z" fill="#BC510F"/>
<path d="M2790.35 132.862C2801.28 132.862 2809.62 136.311 2815.37 143.208C2821.7 149.53 2824.87 158.151 2824.87 169.071V713.067C2824.87 723.987 2821.7 732.896 2815.37 739.792C2809.62 746.115 2801.28 749.276 2790.35 749.276C2779.43 749.276 2770.8 746.115 2764.47 739.792C2758.14 732.896 2754.98 723.987 2754.98 713.067V466.501H2390.89V713.067C2390.89 723.987 2387.72 732.896 2381.39 739.792C2375.07 746.115 2366.44 749.276 2355.51 749.276C2344.58 749.276 2335.95 746.115 2329.63 739.792C2323.88 732.896 2321 723.987 2321 713.067V169.071C2321 158.151 2323.88 149.53 2329.63 143.208C2335.95 136.311 2344.58 132.862 2355.51 132.862C2366.44 132.862 2375.07 136.311 2381.39 143.208C2387.72 149.53 2390.89 158.151 2390.89 169.071V406.153H2754.98V169.071C2754.98 158.151 2758.14 149.53 2764.47 143.208C2770.8 136.311 2779.43 132.862 2790.35 132.862Z" fill="black"/>
<path d="M3136.17 314.769C3241.43 314.769 3294.06 369.944 3294.06 480.295V714.791C3294.06 725.137 3290.89 733.47 3284.57 739.792C3278.81 746.115 3270.76 749.276 3260.41 749.276C3250.06 749.276 3241.72 746.115 3235.39 739.792C3229.06 733.47 3225.9 725.137 3225.9 714.791V673.409C3214.97 698.124 3198.29 717.377 3175.86 731.171C3153.42 744.39 3127.54 751 3098.21 751C3071.17 751 3046.15 745.54 3023.14 734.62C3000.71 723.7 2982.88 708.469 2969.65 688.928C2956.42 669.386 2949.81 647.833 2949.81 624.269C2949.81 592.658 2957.86 568.231 2973.96 550.989C2990.07 533.172 3016.53 520.527 3053.34 513.056C3090.15 505.009 3141.34 500.986 3206.92 500.986H3225.9V472.536C3225.9 438.052 3218.71 412.763 3204.33 396.67C3190.52 380.577 3167.8 372.531 3136.17 372.531C3097.06 372.531 3057.37 383.163 3017.1 404.429C3001.57 414.2 2990.65 419.085 2984.32 419.085C2977.42 419.085 2971.66 416.499 2967.06 411.326C2962.46 406.153 2960.16 399.544 2960.16 391.497C2960.16 383.451 2962.46 376.554 2967.06 370.806C2972.24 364.484 2980.29 358.162 2991.22 351.84C3011.35 340.345 3034.07 331.436 3059.38 325.114C3085.26 318.217 3110.86 314.769 3136.17 314.769ZM3107.7 695.825C3142.21 695.825 3170.39 684.33 3192.25 661.34C3214.68 637.775 3225.9 607.601 3225.9 570.818V545.816H3210.37C3159.75 545.816 3121.21 548.115 3094.75 552.713C3068.3 556.736 3049.31 563.921 3037.81 574.266C3026.88 584.037 3021.42 598.693 3021.42 618.234C3021.42 640.649 3029.47 659.328 3045.58 674.272C3062.26 688.64 3082.96 695.825 3107.7 695.825Z" fill="black"/>
<path d="M3616.11 694.1C3636.24 695.825 3646.31 705.02 3646.31 721.688C3646.31 731.459 3642.57 738.93 3635.09 744.103C3628.19 748.701 3617.55 750.425 3603.17 749.276L3579.87 747.552C3533.86 744.103 3499.92 730.309 3478.07 706.17C3456.21 682.031 3445.28 645.534 3445.28 596.681V380.29H3387.47C3377.7 380.29 3369.93 377.991 3364.18 373.393C3359 368.22 3356.41 361.61 3356.41 353.564C3356.41 344.943 3359 338.046 3364.18 332.873C3369.93 327.701 3377.7 325.114 3387.47 325.114H3445.28V227.695C3445.28 216.775 3448.44 208.441 3454.77 202.694C3461.1 196.371 3469.73 193.21 3480.65 193.21C3491.01 193.21 3499.35 196.371 3505.67 202.694C3512 208.441 3515.17 216.775 3515.17 227.695V325.114H3610.93C3620.14 325.114 3627.33 327.701 3632.5 332.873C3638.26 338.046 3641.13 344.943 3641.13 353.564C3641.13 361.61 3638.26 368.22 3632.5 373.393C3627.33 377.991 3620.14 380.29 3610.93 380.29H3515.17V600.13C3515.17 631.741 3521.49 654.73 3534.15 669.099C3547.38 682.893 3566.93 690.652 3592.82 692.376L3616.11 694.1Z" fill="black"/>
<path d="M4034.43 316.493C4045.35 316.493 4053.69 319.654 4059.45 325.976C4065.77 332.299 4068.94 340.632 4068.94 350.978V715.653C4068.94 725.424 4065.77 733.47 4059.45 739.792C4053.69 746.115 4045.35 749.276 4034.43 749.276C4024.07 749.276 4015.73 746.402 4009.41 740.655C4003.65 734.332 4000.78 726.286 4000.78 716.515V673.409C3987.55 698.698 3968.85 717.952 3944.7 731.171C3921.11 744.39 3894.37 751 3864.46 751C3814.42 751 3776.74 737.206 3751.43 709.618C3726.12 681.456 3713.47 640.074 3713.47 585.474V350.978C3713.47 340.632 3716.63 332.299 3722.96 325.976C3729.29 319.654 3737.92 316.493 3748.84 316.493C3759.77 316.493 3768.11 319.654 3773.87 325.976C3780.19 332.299 3783.36 340.632 3783.36 350.978V583.749C3783.36 621.108 3790.83 648.695 3805.79 666.513C3820.74 683.755 3844.33 692.376 3876.54 692.376C3913.35 692.376 3942.97 680.594 3965.4 657.029C3987.84 632.89 3999.05 601.279 3999.05 562.196V350.978C3999.05 340.632 4002.22 332.299 4008.54 325.976C4014.87 319.654 4023.5 316.493 4034.43 316.493Z" fill="black"/>
<path d="M4410.21 314.769C4510.87 314.769 4561.2 370.232 4561.2 481.157V714.791C4561.2 725.711 4558.03 734.332 4551.7 740.655C4545.95 746.402 4537.61 749.276 4526.68 749.276C4515.76 749.276 4507.13 746.402 4500.8 740.655C4494.47 734.332 4491.31 725.711 4491.31 714.791V485.468C4491.31 446.385 4483.54 417.935 4468.01 400.118C4453.06 382.301 4428.9 373.393 4395.54 373.393C4357 373.393 4326.23 385.175 4303.22 408.74C4280.22 432.304 4268.71 464.202 4268.71 504.435V714.791C4268.71 725.711 4265.55 734.332 4259.22 740.655C4253.47 746.402 4245.13 749.276 4234.2 749.276C4223.27 749.276 4214.64 746.402 4208.32 740.655C4201.99 734.332 4198.83 725.711 4198.83 714.791V350.978C4198.83 340.632 4201.99 332.299 4208.32 325.976C4214.64 319.654 4223.27 316.493 4234.2 316.493C4244.55 316.493 4252.61 319.654 4258.36 325.976C4264.69 332.299 4267.85 340.345 4267.85 350.116V394.084C4281.65 368.22 4300.92 348.679 4325.66 335.46C4350.39 321.666 4378.57 314.769 4410.21 314.769Z" fill="black"/>
<path d="M5699.35 154.415C5701.65 146.943 5705.68 141.483 5711.43 138.035C5717.18 134.012 5723.51 132 5730.41 132C5739.62 132 5747.38 134.874 5753.71 140.621C5760.61 145.794 5764.06 152.978 5764.06 162.174C5764.06 166.197 5763.2 170.795 5761.47 175.968L5566.49 725.136C5563.61 733.183 5558.72 739.505 5551.82 744.103C5544.92 748.126 5537.15 750.138 5528.52 750.138C5520.47 750.138 5512.99 748.126 5506.09 744.103C5499.19 739.505 5494.3 733.183 5491.42 725.136L5322.32 247.524L5151.49 725.136C5148.61 733.183 5143.72 739.505 5136.82 744.103C5129.92 748.126 5122.44 750.138 5114.39 750.138C5106.33 750.138 5098.86 748.126 5091.95 744.103C5085.05 739.505 5080.16 733.183 5077.29 725.136L4881.44 175.968C4879.71 171.37 4878.85 167.059 4878.85 163.036C4878.85 153.84 4882.3 146.369 4889.2 140.621C4896.68 134.874 4905.02 132 4914.22 132C4921.12 132 4927.45 134.012 4933.2 138.035C4939.53 141.483 4943.84 146.943 4946.14 154.415L5116.11 644.097L5288.67 159.588C5291.55 150.967 5296.15 144.644 5302.47 140.621C5308.8 136.023 5315.7 133.724 5323.18 133.724C5330.66 133.724 5337.56 136.023 5343.89 140.621C5350.21 145.219 5354.82 151.829 5357.69 160.45L5527.66 645.822L5699.35 154.415Z" fill="black"/>
<path d="M5984.87 314.769C6090.13 314.769 6142.76 369.944 6142.76 480.295V714.791C6142.76 725.137 6139.59 733.47 6133.27 739.792C6127.51 746.115 6119.46 749.276 6109.11 749.276C6098.75 749.276 6090.41 746.115 6084.09 739.792C6077.76 733.47 6074.6 725.137 6074.6 714.791V673.409C6063.67 698.124 6046.99 717.377 6024.56 731.171C6002.12 744.39 5976.24 751 5946.91 751C5919.87 751 5894.85 745.54 5871.84 734.62C5849.41 723.7 5831.58 708.469 5818.35 688.928C5805.12 669.386 5798.51 647.833 5798.51 624.269C5798.51 592.658 5806.56 568.231 5822.66 550.989C5838.77 533.172 5865.23 520.527 5902.04 513.056C5938.85 505.009 5990.04 500.986 6055.62 500.986H6074.6V472.536C6074.6 438.052 6067.41 412.763 6053.03 396.67C6039.22 380.577 6016.5 372.531 5984.87 372.531C5945.75 372.531 5906.07 383.163 5865.8 404.429C5850.27 414.2 5839.34 419.085 5833.02 419.085C5826.12 419.085 5820.36 416.499 5815.76 411.326C5811.16 406.153 5808.86 399.544 5808.86 391.497C5808.86 383.451 5811.16 376.554 5815.76 370.806C5820.94 364.484 5828.99 358.162 5839.92 351.84C5860.05 340.345 5882.77 331.436 5908.08 325.114C5933.96 318.217 5959.56 314.769 5984.87 314.769ZM5956.4 695.825C5990.91 695.825 6019.09 684.33 6040.95 661.34C6063.38 637.775 6074.6 607.601 6074.6 570.818V545.816H6059.07C6008.45 545.816 5969.91 548.115 5943.45 552.713C5917 556.736 5898.01 563.921 5886.51 574.266C5875.58 584.037 5870.12 598.693 5870.12 618.234C5870.12 640.649 5878.17 659.328 5894.28 674.272C5910.96 688.64 5931.66 695.825 5956.4 695.825Z" fill="black"/>
<path d="M6412.18 751C6385.72 751 6360.41 747.839 6336.26 741.517C6312.67 735.195 6291.68 726.286 6273.27 714.791C6262.92 707.894 6255.44 701.572 6250.84 695.825C6246.81 689.502 6244.8 682.031 6244.8 673.409C6244.8 665.938 6246.81 659.903 6250.84 655.305C6255.44 650.132 6261.19 647.546 6268.1 647.546C6275 647.546 6285.06 651.857 6298.29 660.478C6315.55 670.823 6332.52 679.157 6349.2 685.479C6366.45 691.227 6387.74 694.1 6413.04 694.1C6444.1 694.1 6468.26 688.64 6485.52 677.72C6502.77 666.8 6511.4 650.994 6511.4 630.304C6511.4 617.659 6508.24 607.601 6501.91 600.13C6495.58 592.083 6484.65 585.186 6469.12 579.439C6453.59 573.117 6430.87 566.794 6400.96 560.472C6350.35 549.552 6314.11 534.896 6292.25 516.504C6270.4 498.112 6259.47 473.111 6259.47 441.5C6259.47 416.786 6266.37 394.946 6280.18 375.979C6293.98 357.013 6312.96 342.069 6337.12 331.149C6361.85 320.229 6389.75 314.769 6420.81 314.769C6443.24 314.769 6464.81 317.93 6485.52 324.252C6506.8 330 6525.49 338.333 6541.6 349.253C6561.15 363.047 6570.93 377.416 6570.93 392.359C6570.93 399.831 6568.63 406.153 6564.03 411.326C6559.43 416.499 6553.96 419.085 6547.64 419.085C6540.74 419.085 6530.38 414.2 6516.58 404.429C6500.47 394.084 6485.23 386.037 6470.85 380.29C6456.47 374.542 6438.64 371.669 6417.36 371.669C6390.32 371.669 6368.47 377.703 6351.79 389.773C6335.68 401.843 6327.63 417.935 6327.63 438.052C6327.63 450.696 6330.5 461.041 6336.26 469.088C6342.58 476.559 6352.65 483.456 6366.45 489.779C6380.83 495.526 6401.25 501.273 6427.71 507.021C6466.82 515.642 6497.02 525.125 6518.3 535.471C6540.16 545.816 6555.69 558.461 6564.89 573.404C6574.1 588.347 6578.7 607.314 6578.7 630.304C6578.7 666.513 6563.46 695.825 6532.97 718.24C6502.49 740.08 6462.22 751 6412.18 751Z" fill="black"/>
<path d="M6720.6 749.276C6710.25 749.276 6701.62 746.402 6694.72 740.655C6688.39 734.332 6685.22 725.711 6685.22 714.791V350.978C6685.22 340.058 6688.39 331.724 6694.72 325.976C6701.62 319.654 6710.25 316.493 6720.6 316.493C6730.95 316.493 6739.29 319.654 6745.62 325.976C6751.95 331.724 6755.11 340.058 6755.11 350.978V714.791C6755.11 726.286 6751.95 734.907 6745.62 740.655C6739.29 746.402 6730.95 749.276 6720.6 749.276ZM6720.6 225.971C6706.79 225.971 6695.58 221.948 6686.95 213.901C6678.32 205.855 6674.01 195.222 6674.01 182.003C6674.01 169.358 6678.32 159.013 6686.95 150.967C6695.58 142.92 6706.79 138.897 6720.6 138.897C6734.4 138.897 6745.62 142.92 6754.25 150.967C6762.88 159.013 6767.19 169.358 6767.19 182.003C6767.19 195.222 6762.88 205.855 6754.25 213.901C6745.62 221.948 6734.4 225.971 6720.6 225.971Z" fill="black"/>
<path d="M7587.9 132.862C7598.83 132.862 7607.17 136.311 7612.92 143.208C7619.25 149.53 7622.41 158.151 7622.41 169.071V713.067C7622.41 723.987 7619.25 732.896 7612.92 739.792C7607.17 746.115 7598.83 749.276 7587.9 749.276C7576.97 749.276 7568.34 746.115 7562.01 739.792C7555.69 732.896 7552.52 723.987 7552.52 713.067V466.501H7188.43V713.067C7188.43 723.987 7185.27 732.896 7178.94 739.792C7172.61 746.115 7163.98 749.276 7153.06 749.276C7142.13 749.276 7133.5 746.115 7127.17 739.792C7121.42 732.896 7118.54 723.987 7118.54 713.067V169.071C7118.54 158.151 7121.42 149.53 7127.17 143.208C7133.5 136.311 7142.13 132.862 7153.06 132.862C7163.98 132.862 7172.61 136.311 7178.94 143.208C7185.27 149.53 7188.43 158.151 7188.43 169.071V406.153H7552.52V169.071C7552.52 158.151 7555.69 149.53 7562.01 143.208C7568.34 136.311 7576.97 132.862 7587.9 132.862Z" fill="black"/>
<path d="M7936.3 751C7896.61 751 7861.53 742.091 7831.04 724.274C7801.13 706.457 7777.84 681.169 7761.16 648.408C7745.05 615.073 7737 576.565 7737 532.884C7737 489.204 7745.05 450.983 7761.16 418.223C7777.84 384.888 7801.13 359.312 7831.04 341.494C7861.53 323.677 7896.61 314.769 7936.3 314.769C7975.99 314.769 8011.08 323.677 8041.56 341.494C8072.04 359.312 8095.34 384.888 8111.45 418.223C8128.13 450.983 8136.47 489.204 8136.47 532.884C8136.47 576.565 8128.13 615.073 8111.45 648.408C8095.34 681.169 8072.04 706.457 8041.56 724.274C8011.08 742.091 7975.99 751 7936.3 751ZM7936.3 693.238C7977.71 693.238 8009.35 679.732 8031.21 652.719C8053.64 625.131 8064.85 585.186 8064.85 532.884C8064.85 481.732 8053.64 442.362 8031.21 414.774C8008.77 386.612 7977.14 372.531 7936.3 372.531C7895.46 372.531 7863.83 386.612 7841.39 414.774C7818.96 442.362 7807.75 481.732 7807.75 532.884C7807.75 584.611 7818.67 624.269 7840.53 651.857C7862.96 679.444 7894.89 693.238 7936.3 693.238Z" fill="black"/>
<path d="M8382.09 751C8355.63 751 8330.32 747.839 8306.16 741.517C8282.58 735.195 8261.59 726.286 8243.18 714.791C8232.83 707.894 8225.35 701.572 8220.75 695.825C8216.72 689.502 8214.71 682.031 8214.71 673.409C8214.71 665.938 8216.72 659.903 8220.75 655.305C8225.35 650.132 8231.1 647.546 8238 647.546C8244.91 647.546 8254.97 651.857 8268.2 660.478C8285.46 670.823 8302.43 679.157 8319.11 685.479C8336.36 691.227 8357.64 694.1 8382.95 694.1C8414.01 694.1 8438.17 688.64 8455.43 677.72C8472.68 666.8 8481.31 650.994 8481.31 630.304C8481.31 617.659 8478.15 607.601 8471.82 600.13C8465.49 592.083 8454.56 585.186 8439.03 579.439C8423.5 573.117 8400.78 566.794 8370.87 560.472C8320.26 549.552 8284.02 534.896 8262.16 516.504C8240.31 498.112 8229.38 473.111 8229.38 441.5C8229.38 416.786 8236.28 394.946 8250.08 375.979C8263.89 357.013 8282.87 342.069 8307.03 331.149C8331.76 320.229 8359.66 314.769 8390.72 314.769C8413.15 314.769 8434.72 317.93 8455.43 324.252C8476.71 330 8495.4 338.333 8511.51 349.253C8531.06 363.047 8540.84 377.416 8540.84 392.359C8540.84 399.831 8538.54 406.153 8533.94 411.326C8529.34 416.499 8523.87 419.085 8517.55 419.085C8510.64 419.085 8500.29 414.2 8486.49 404.429C8470.38 394.084 8455.14 386.037 8440.76 380.29C8426.38 374.542 8408.55 371.669 8387.27 371.669C8360.23 371.669 8338.38 377.703 8321.69 389.773C8305.59 401.843 8297.54 417.935 8297.54 438.052C8297.54 450.696 8300.41 461.041 8306.16 469.088C8312.49 476.559 8322.56 483.456 8336.36 489.779C8350.74 495.526 8371.16 501.273 8397.62 507.021C8436.73 515.642 8466.93 525.125 8488.21 535.471C8510.07 545.816 8525.6 558.461 8534.8 573.404C8544 588.347 8548.61 607.314 8548.61 630.304C8548.61 666.513 8533.36 695.825 8502.88 718.24C8472.39 740.08 8432.13 751 8382.09 751Z" fill="black"/>
<path d="M8845.05 694.1C8865.18 695.825 8875.24 705.02 8875.24 721.688C8875.24 731.459 8871.5 738.93 8864.03 744.103C8857.12 748.701 8846.48 750.425 8832.1 749.276L8808.81 747.552C8762.79 744.103 8728.86 730.309 8707 706.17C8685.14 682.031 8674.22 645.534 8674.22 596.681V380.29H8616.41C8606.63 380.29 8598.87 377.991 8593.11 373.393C8587.94 368.22 8585.35 361.61 8585.35 353.564C8585.35 344.943 8587.94 338.046 8593.11 332.873C8598.87 327.701 8606.63 325.114 8616.41 325.114H8674.22V227.695C8674.22 216.775 8677.38 208.441 8683.71 202.694C8690.03 196.371 8698.66 193.21 8709.59 193.21C8719.94 193.21 8728.28 196.371 8734.61 202.694C8740.94 208.441 8744.1 216.775 8744.1 227.695V325.114H8839.87C8849.07 325.114 8856.26 327.701 8861.44 332.873C8867.19 338.046 8870.07 344.943 8870.07 353.564C8870.07 361.61 8867.19 368.22 8861.44 373.393C8856.26 377.991 8849.07 380.29 8839.87 380.29H8744.1V600.13C8744.1 631.741 8750.43 654.73 8763.08 669.099C8776.31 682.893 8795.87 690.652 8821.75 692.376L8845.05 694.1Z" fill="black"/>
<path d="M9269.4 647.546C9275.73 647.546 9281.19 650.132 9285.79 655.305C9290.4 660.478 9292.7 667.087 9292.7 675.134C9292.7 689.502 9282.63 702.721 9262.5 714.791C9241.79 726.861 9219.93 736.057 9196.93 742.379C9173.92 748.126 9151.49 751 9129.63 751C9064.63 751 9013.15 731.746 8975.19 693.238C8937.8 654.73 8919.11 601.566 8919.11 533.747C8919.11 490.641 8927.45 452.708 8944.13 419.947C8960.81 386.612 8984.11 360.748 9014.02 342.357C9044.5 323.965 9079.01 314.769 9117.55 314.769C9172.19 314.769 9215.62 332.586 9247.83 368.22C9280.04 403.854 9296.15 452.133 9296.15 513.056C9296.15 524.551 9293.85 532.884 9289.24 538.057C9284.64 543.23 9277.17 545.816 9266.81 545.816H8989C8994.17 644.672 9041.05 694.1 9129.63 694.1C9152.06 694.1 9171.33 691.227 9187.44 685.479C9203.54 679.157 9220.8 670.823 9239.2 660.478C9254.16 651.857 9264.22 647.546 9269.4 647.546ZM9118.41 369.082C9081.6 369.082 9051.98 380.577 9029.55 403.567C9007.69 426.557 8994.75 459.03 8990.72 500.986H9234.89C9233.74 458.455 9223.1 425.982 9202.97 403.567C9182.83 380.577 9154.65 369.082 9118.41 369.082Z" fill="black"/>
<path d="M9434.49 749.276C9424.14 749.276 9415.51 746.402 9408.61 740.655C9402.28 734.332 9399.11 725.711 9399.11 714.791V167.347C9399.11 156.427 9402.28 148.093 9408.61 142.345C9415.51 136.023 9424.14 132.862 9434.49 132.862C9444.27 132.862 9452.32 136.023 9458.65 142.345C9465.55 148.093 9469 156.427 9469 167.347V714.791C9469 725.711 9465.55 734.332 9458.65 740.655C9452.32 746.402 9444.27 749.276 9434.49 749.276Z" fill="black"/>
</g>
<defs>
<filter id="filter0_d_22_142" x="0" y="0" width="9519" height="933" filterUnits="userSpaceOnUse" color-interpolation-filters="sRGB">
<feFlood flood-opacity="0" result="BackgroundImageFix"/>
<feColorMatrix in="SourceAlpha" type="matrix" values="0 0 0 0 0 0 0 0 0 0 0 0 0 0 0 0 0 0 127 0" result="hardAlpha"/>
<feOffset dx="40" dy="41"/>
<feGaussianBlur stdDeviation="5"/>
<feComposite in2="hardAlpha" operator="out"/>
<feColorMatrix type="matrix" values="0 0 0 0 0 0 0 0 0 0 0 0 0 0 0 0 0 0 0.25 0"/>
<feBlend mode="normal" in2="BackgroundImageFix" result="effect1_dropShadow_22_142"/>
<feBlend mode="normal" in="SourceGraphic" in2="effect1_dropShadow_22_142" result="shape"/>
</filter>
</defs>
</svg>
